{"accessors" : [{"bufferView" : 0, "byteOffset" : 0, "componentType" : 5123, "count" : 14916, "type" : "SCALAR", "max" : [14915], "min" : [0]}, {"bufferView" : 1, "byteOffset" : 0, "componentType" : 5126, "count" : 14916, "type" : "VEC3", "max" : [477279.9375, 477283.9375, 477287.9375], "min" : [-0.06782549619674683, 3.9321744441986084, 7.9321746826171875]}, {"bufferView" : 1, "byteOffset" : 12, "componentType" : 5126, "count" : 14916, "type" : "VEC3", "max" : [477291.9375, 477295.9375, 477299.9375], "min" : [11.932174682617188, 15.932174682617188, 19.932174682617188]}, {"bufferView" : 1, "byteOffset" : 24, "componentType" : 5126, "count" : 14916, "type" : "VEC2", "max" : [477303.9375, 477307.9375], "min" : [23.932174682617188, 27.932174682617188]}], "asset" : {"generator" : "Aspose.3D 20.8", "version" : "2.0"}, "buffers" : [{"uri" : "buffer.bin", "byteLength" : 507152}], "bufferViews" : [{"buffer" : 0, "byteOffset" : 0, "byteLength" : 29832, "target" : 34963}, {"buffer" : 0, "byteOffset" : 29836, "byteLength" : 477312, "byteStride" : 32, "target" : 34962}], "images" : [{"uri" : "F:\\projects\\photogrammetry\\medical\\mask_01\\face_mask_3d_stock\\textures\\face_mask_nor.PNG"}, {"uri" : "F:\\projects\\photogrammetry\\medical\\mask_01\\face_mask_3d_stock\\textures\\face_mask_diffuse.PNG"}], "materials" : [{"pbrMetallicRoughness" : {"baseColorFactor" : [0, 0, 0, 1], "baseColorTexture" : {"index" : 1, "texCoord" : 0}, "metallicFactor" : 0, "roughnessFactor" : 0}, "normalTexture" : {"index" : 0, "texCoord" : 0, "scale" : 1}, "emissiveFactor" : [0, 0, 0], "alphaMode" : "OPAQUE", "doubleSided" : false}], "meshes" : [{"primitives" : [{"attributes" : {"POSITION" : 1, "NORMAL" : 2, "TEXCOORD_0" : 3}, "indices" : 0, "material" : 0, "mode" : 4}]}], "nodes" : [{"matrix" : [-98.64714813232312, 1.4895304960963E-05, 2.6817319584771396E-14, 0, -1.4774781767165168E-07, -0.9784893949273926, -108.79429827680246, 0, -1.618763588350992E-05, -107.20586917310959, 0.9642031588178086, 0, 0, 0, 0, 1], "mesh" : 0, "name" : "face_mask_1_object"}], "samplers" : [{"magFilter" : 9729, "minFilter" : 9729, "wrapS" : 10497, "wrapT" : 10497}, {"magFilter" : 9729, "minFilter" : 9729, "wrapS" : 10497, "wrapT" : 10497}], "scene" : 0, "scenes" : [{"nodes" : [0]}], "textures" : [{"sampler" : 0, "source" : 0}, {"sampler" : 1, "source" : 1}]}