{
  "accessors": [
    {
      "bufferView": 2,
      "componentType": 5126,
      "count": 15992,
      "max": [
        4.4647941589355469,
        0.080336712300777435,
        6.6881241798400879
      ],
      "min": [
        -8.9149532318115234,
        -15.262277603149414,
        -6.1617074012756348
      ],
      "type": "VEC3"
    },
    {
      "bufferView": 2,
      "byteOffset": 191904,
      "componentType": 5126,
      "count": 15992,
      "max": [
        0.99979150295257568,
        1,
        0.99756711721420288
      ],
      "min": [
        -0.9999997615814209,
        -1,
        -0.99753636121749878
      ],
      "type": "VEC3"
    },
    {
      "bufferView": 1,
      "componentType": 5126,
      "count": 15992,
      "max": [
        1,
        1
      ],
      "min": [
        0,
        0
      ],
      "type": "VEC2"
    },
    {
      "bufferView": 0,
      "componentType": 5125,
      "count": 81408,
      "max": [
        15991
      ],
      "min": [
        0
      ],
      "type": "SCALAR"
    },
    {
      "bufferView": 2,
      "byteOffset": 383808,
      "componentType": 5126,
      "count": 19896,
      "max": [
        4.8811321258544922,
        0.015203304588794708,
        4.4318060874938965
      ],
      "min": [
        -7.5584683418273926,
        -13.338027000427246,
        -0.27454328536987305
      ],
      "type": "VEC3"
    },
    {
      "bufferView": 2,
      "byteOffset": 622560,
      "componentType": 5126,
      "count": 19896,
      "max": [
        0.99998193979263306,
        0.99999189376831055,
        0.99972343444824219
      ],
      "min": [
        -0.99991375207901001,
        -0.99995541572570801,
        -0.99995601177215576
      ],
      "type": "VEC3"
    },
    {
      "bufferView": 1,
      "byteOffset": 127936,
      "componentType": 5126,
      "count": 19896,
      "max": [
        1,
        1
      ],
      "min": [
        0,
        0
      ],
      "type": "VEC2"
    },
    {
      "bufferView": 0,
      "byteOffset": 325632,
      "componentType": 5125,
      "count": 110592,
      "max": [
        19895
      ],
      "min": [
        0
      ],
      "type": "SCALAR"
    },
    {
      "bufferView": 2,
      "byteOffset": 861312,
      "componentType": 5126,
      "count": 13585,
      "max": [
        7.9896383285522461,
        22.720603942871094,
        6.7054495811462402
      ],
      "min": [
        -7.9896383285522461,
        11.628124237060547,
        -3.4139711856842041
      ],
      "type": "VEC3"
    },
    {
      "bufferView": 2,
      "byteOffset": 1024332,
      "componentType": 5126,
      "count": 13585,
      "max": [
        0.99886578321456909,
        0.99862319231033325,
        0.99968379735946655
      ],
      "min": [
        -0.99886572360992432,
        -0.99843037128448486,
        -0.9996330738067627
      ],
      "type": "VEC3"
    },
    {
      "bufferView": 1,
      "byteOffset": 287104,
      "componentType": 5126,
      "count": 13585,
      "max": [
        1,
        1
      ],
      "min": [
        0,
        0
      ],
      "type": "VEC2"
    },
    {
      "bufferView": 0,
      "byteOffset": 768000,
      "componentType": 5125,
      "count": 79488,
      "max": [
        13584
      ],
      "min": [
        0
      ],
      "type": "SCALAR"
    },
    {
      "bufferView": 2,
      "byteOffset": 1187352,
      "componentType": 5126,
      "count": 10205,
      "max": [
        6.7107863426208496,
        0.44944822788238525,
        4.9358606338500977
      ],
      "min": [
        -6.7107863426208496,
        -8.4625892639160156,
        -4.4283285140991211
      ],
      "type": "VEC3"
    },
    {
      "bufferView": 2,
      "byteOffset": 1309812,
      "componentType": 5126,
      "count": 10205,
      "max": [
        0.99917298555374146,
        0.99973392486572266,
        1
      ],
      "min": [
        -0.99917316436767578,
        -0.51902425289154053,
        -1
      ],
      "type": "VEC3"
    },
    {
      "bufferView": 1,
      "byteOffset": 395784,
      "componentType": 5126,
      "count": 10205,
      "max": [
        0.85007226467132568,
        0.76103734970092773
      ],
      "min": [
        0.14992773532867432,
        0.29584431648254395
      ],
      "type": "VEC2"
    },
    {
      "bufferView": 0,
      "byteOffset": 1085952,
      "componentType": 5125,
      "count": 58368,
      "max": [
        10204
      ],
      "min": [
        0
      ],
      "type": "SCALAR"
    },
    {
      "bufferView": 2,
      "byteOffset": 1432272,
      "componentType": 5126,
      "count": 10205,
      "max": [
        6.7107863426208496,
        0.44944822788238525,
        4.9358606338500977
      ],
      "min": [
        -6.7107863426208496,
        -8.4625892639160156,
        -4.4283285140991211
      ],
      "type": "VEC3"
    },
    {
      "bufferView": 2,
      "byteOffset": 1554732,
      "componentType": 5126,
      "count": 10205,
      "max": [
        0.99917298555374146,
        0.99973392486572266,
        1
      ],
      "min": [
        -0.99917316436767578,
        -0.51902425289154053,
        -1
      ],
      "type": "VEC3"
    },
    {
      "bufferView": 1,
      "byteOffset": 477424,
      "componentType": 5126,
      "count": 10205,
      "max": [
        0.85007226467132568,
        0.76103734970092773
      ],
      "min": [
        0.14992773532867432,
        0.29584431648254395
      ],
      "type": "VEC2"
    },
    {
      "bufferView": 0,
      "byteOffset": 1319424,
      "componentType": 5125,
      "count": 58368,
      "max": [
        10204
      ],
      "min": [
        0
      ],
      "type": "SCALAR"
    }
  ],
  "asset": {
    "extras": {
      "author": "galina86 (https://sketchfab.com/galina86)",
      "license": "CC-BY-4.0 (http://creativecommons.org/licenses/by/4.0/)",
      "source": "https://sketchfab.com/3d-models/mask-cc12b9d9922d46d6817927b2075f0f75",
      "title": "Mask"
    },
    "generator": "Sketchfab-8.64.0",
    "version": "2.0"
  },
  "bufferViews": [
    {
      "buffer": 0,
      "byteLength": 1552896,
      "byteOffset": 0,
      "name": "floatBufferViews",
      "target": 34963
    },
    {
      "buffer": 0,
      "byteLength": 559064,
      "byteOffset": 1552896,
      "byteStride": 8,
      "name": "floatBufferViews",
      "target": 34962
    },
    {
      "buffer": 0,
      "byteLength": 1677192,
      "byteOffset": 2111960,
      "byteStride": 12,
      "name": "floatBufferViews",
      "target": 34962
    }
  ],
  "buffers": [
    {
      "byteLength": 3789152,
      "uri": "scene.bin"
    }
  ],
  "materials": [
    {
      "doubleSided": true,
      "name": "Scene_-_Root",
      "pbrMetallicRoughness": {
        "baseColorFactor": [
          1,
          1,
          1,
          1
        ],
        "metallicFactor": 0,
        "roughnessFactor": 0.59999999999999998
      }
    }
  ],
  "meshes": [
    {
      "name": "1__0",
      "primitives": [
        {
          "attributes": {
            "NORMAL": 1,
            "POSITION": 0,
            "TEXCOORD_0": 2
          },
          "indices": 3,
          "material": 0,
          "mode": 4
        }
      ]
    },
    {
      "name": "1_2__0",
      "primitives": [
        {
          "attributes": {
            "NORMAL": 5,
            "POSITION": 4,
            "TEXCOORD_0": 6
          },
          "indices": 7,
          "material": 0,
          "mode": 4
        }
      ]
    },
    {
      "name": "1_3__0",
      "primitives": [
        {
          "attributes": {
            "NORMAL": 9,
            "POSITION": 8,
            "TEXCOORD_0": 10
          },
          "indices": 11,
          "material": 0,
          "mode": 4
        }
      ]
    },
    {
      "name": "Mask__0",
      "primitives": [
        {
          "attributes": {
            "NORMAL": 13,
            "POSITION": 12,
            "TEXCOORD_0": 14
          },
          "indices": 15,
          "material": 0,
          "mode": 4
        }
      ]
    },
    {
      "name": "Mask_2__0",
      "primitives": [
        {
          "attributes": {
            "NORMAL": 17,
            "POSITION": 16,
            "TEXCOORD_0": 18
          },
          "indices": 19,
          "material": 0,
          "mode": 4
        }
      ]
    }
  ],
  "nodes": [
    {
      "children": [
        1
      ],
      "name": "RootNode (gltf orientation matrix)",
      "rotation": [
        -0.70710678118654746,
        -0,
        -0,
        0.70710678118654757
      ]
    },
    {
      "children": [
        2
      ],
      "name": "RootNode (model correction matrix)"
    },
    {
      "children": [
        3
      ],
      "matrix": [
        1,
        0,
        0,
        0,
        0,
        0,
        1,
        0,
        0,
        -1,
        0,
        0,
        0,
        0,
        0,
        1
      ],
      "name": "5725866502be42d1b38e55f6aa77454d.fbx"
    },
    {
      "children": [
        4,
        6,
        8,
        10,
        12,
        14
      ],
      "name": "RootNode"
    },
    {
      "children": [
        5
      ],
      "matrix": [
        0.073236948084231424,
        -0.53380579993090893,
        -0.84242965130355563,
        0,
        0.046232251596667273,
        0.84560710023043351,
        -0.53179997268914947,
        0,
        0.99624240441150169,
        -1.2600527732331557e-08,
        0.086608727345399705,
        0,
        -11.324270248413086,
        184.34405517578125,
        37.004154205322266,
        1
      ],
      "name": "CINEMA_4D_Editor"
    },
    {
      "name": ""
    },
    {
      "children": [
        7
      ],
      "matrix": [
        0.33318429902732793,
        -0.04122145755142953,
        0.94196019784224638,
        0,
        -0.91769972672932232,
        0.21508355228239007,
        0.33401538452370044,
        0,
        -0.21636874645520143,
        -0.97572529790660045,
        0.033833542269184558,
        0,
        -23.328943252563477,
        169.68968200683594,
        7.9336023330688477,
        1
      ],
      "name": "1"
    },
    {
      "mesh": 0,
      "name": "1__0"
    },
    {
      "children": [
        9
      ],
      "matrix": [
        -0.46588233479448027,
        -0.7954497693833763,
        -0.38757362463714889,
        0,
        0.82919596345210744,
        -0.54535812922208948,
        0.12255025534903685,
        0,
        -0.30884899922320502,
        -0.26428048599795712,
        0.91365645644274207,
        0,
        5.1345911026000977,
        162.597412109375,
        5.2509737014770508,
        1
      ],
      "name": "1_2"
    },
    {
      "mesh": 1,
      "name": "1_2__0"
    },
    {
      "children": [
        11
      ],
      "matrix": [
        1,
        0,
        0,
        0,
        0,
        1,
        0,
        0,
        0,
        0,
        1,
        0,
        0,
        150.94670104980469,
        1.3073891401290894,
        1
      ],
      "name": "1_3"
    },
    {
      "mesh": 2,
      "name": "1_3__0"
    },
    {
      "children": [
        13
      ],
      "matrix": [
        1,
        0,
        0,
        0,
        0,
        2.2204460492503131e-16,
        1,
        0,
        0,
        -1,
        2.2204460492503131e-16,
        0,
        -17.118104934692383,
        166.03860473632812,
        13.067145347595215,
        1
      ],
      "name": "Mask"
    },
    {
      "mesh": 3,
      "name": "Mask__0"
    },
    {
      "children": [
        15
      ],
      "matrix": [
        1,
        0,
        0,
        0,
        0,
        2.2204460492503131e-16,
        1,
        0,
        0,
        -1,
        2.2204460492503131e-16,
        0,
        0,
        166.03860473632812,
        13.067145347595215,
        1
      ],
      "name": "Mask_2"
    },
    {
      "mesh": 4,
      "name": "Mask_2__0"
    }
  ],
  "scene": 0,
  "scenes": [
    {
      "name": "OSG_Scene",
      "nodes": [
        0
      ]
    }
  ]
}

