<svg id="圖層_1" data-name="圖層 1" xmlns="http://www.w3.org/2000/svg" viewBox="0 0 1190.55 841.89"><defs><style>.cls-1,.cls-3{fill:#898989;}.cls-1,.cls-2{opacity:0.53;}</style></defs><path class="cls-1" d="M110.4,256.43s.67,3.59-.37,5.34c0,0-1.7-2.69-2.5-2.88s-2.51-.62-3.4.56-4.3,3.5-5.85,4.54-6,4.9-6.09,5.42-.9,3.59-.47,3.78a39.38,39.38,0,0,0,4.67-.05c.71-.19,1.74-2.41,2.45-2.64,0,0,.9-.71,1.56,0,0,0-.61.05-.61.33a3.48,3.48,0,0,1-.38.9c-.24.33-.66,1-.66,1s3.73-.29,4.2-.48a1.89,1.89,0,0,1,2.59.81s-.7-.52-1.13-.33c0,0,0,.85-.61.75a14.61,14.61,0,0,0-4.2.62s2.26,0,2.83,1.08-.14,1.09-.14,1.09.09-.24-.38-.38c0,0-3-.85-4.44-.57a8.8,8.8,0,0,0-2.69,1.28c-.42.56-.89,1-1.22,1.08,0,0-.38.85-.15,1.28,0,0-1.13-.62-.66-1.61a1.43,1.43,0,0,1,1.18-1.6c1.42-.43,1.18-.71,1.18-.71s-2.45-.24-3.44.52a5.22,5.22,0,0,1-.29,2.5c-.47.8-1.36,3.59-.56,4.15s3.92,2.6,5.43,2.46,4.72-2.69,5.19-.85a9.19,9.19,0,0,0,2.26.28c.66-.09,1.42.19,1.28,1a.86.86,0,0,0-1-.28s0,.85-.8.75a10.36,10.36,0,0,0-4.67.62s2.5.38,1.56,2.5c0,0,.28-.38-.33-.43a9,9,0,0,1-2.93-.52c-.57-.42-1.79-1.65-2.88-1.51s-2.12.19-1.89.67c0,0-1.32-.52-.47-1.33a5.7,5.7,0,0,0-2-.94,4.63,4.63,0,0,1-3.82-4.34,12.47,12.47,0,0,1-3,.05s-2.27,0-2.41-.9-2.74,1.79-3.49,1.08a.87.87,0,0,1-1.14-.09s-1.41.52-1.32-.38a1.74,1.74,0,0,0-1.46.19s-1.51,5.43-1.61,6.33-3.3,3-4.24,3c-.66,0-.57-.48-.57-.48a28,28,0,0,1-2,2.55c-.8.8-2.36,1.65-2.17-.33a11.76,11.76,0,0,1,1.51-4.15s-3.87,6.56-5.43,6.32c0,0-2.31,1.65-2.41-.66,0,0-4.24,1.94-2.92-1.89.56-1.65,3.3-4.29,3.3-4.29s-3.86,3.3-4.11,3.44c-.56.34-2.83.19-1.41-2.07s2.59-2.74,2.59-2.74-2.45,1.84-3.3.9-.47-2.69,3.73-6.28c0,0-.62-1.18,1.93-3.11,0,0-.52-3,6.09-5.43,0,0,2.08-3.4,3.26-4.11,0,0-3,.66-2.83-1.32,0,0-2.65.57-2.51-2,0,0-3.2.52-2.59-2.41,0,0-3.92-.47-1.61-3.77,0,0-2.36.14-2.21-1.61a2.69,2.69,0,0,1-1-3,2.81,2.81,0,0,1-.43-2.83,1.89,1.89,0,0,1-.09-2.17s-3.64-.24-3.69-3.64a4,4,0,0,1-3.2-4.67s-4.44-2-3.07-5.38c0,0-3.49-1.7-3-5.38,0,0-4.44-2.45-2.46-5.1,0,0-5.61-3.87-2-6.37,0,0-4.2-3.68-3.11-5.47,0,0-3.31-2.79-1.33-4.53,0,0-1.78-3-.28-4.11,1.18-.85,2.41,3.26,8.21,5.71,0,0-1.25-1.25-1-2.12.14-.48.95,0,.95,0s-5.24-6.14-4.49-9.3c.64-2.67,1.47,2.5,7.51,8.12,0,0-2.13-5.67-1.18-7.37s1.07,2.46,3.58,6.42c3.21,5.05,7.79,7.6,8.73,8.88,0,0-4-6.08-3.68-11.43.29-5.09,3-4.95,3.21-4.72s-1.13,2.84-.37,6.47,4.57,12.7,11.94,18.88a14,14,0,0,1,8.92,5.52c3.58,4.91,10.52,15,13.92,18.08,0,0,4.35,3.2,12.08,2.92,4-.14,6.94-1.55,10.15,1A5.54,5.54,0,0,1,110.4,256.43Z"/><path class="cls-1" d="M1164.63,239.19s.66,3.58-.37,5.33c0,0-1.7-2.69-2.51-2.88s-2.5-.61-3.39.57-4.3,3.49-5.86,4.53-6,4.91-6.08,5.42-.9,3.59-.48,3.78a39.54,39.54,0,0,0,4.68-.05c.7-.19,1.74-2.4,2.45-2.64,0,0,.9-.71,1.56,0,0,0-.62.05-.62.33a3.31,3.31,0,0,1-.37.9c-.24.33-.66,1-.66,1s3.72-.29,4.2-.47a1.88,1.88,0,0,1,2.59.8s-.71-.52-1.13-.33c0,0-.05.85-.61.75a14.61,14.61,0,0,0-4.2.62s2.26,0,2.83,1.08-.14,1.09-.14,1.09.09-.24-.38-.38c0,0-3-.85-4.44-.57a8.8,8.8,0,0,0-2.69,1.28c-.42.56-.9,1-1.23,1.08,0,0-.37.85-.14,1.28,0,0-1.13-.62-.66-1.61a1.43,1.43,0,0,1,1.18-1.6c1.42-.43,1.18-.71,1.18-.71s-2.45-.24-3.44.52a5.22,5.22,0,0,1-.29,2.5c-.47.8-1.37,3.59-.56,4.15s3.91,2.6,5.42,2.46,4.72-2.69,5.2-.85a9.19,9.19,0,0,0,2.26.28c.66-.09,1.42.19,1.28,1a.86.86,0,0,0-1-.28s0,.85-.8.76a10.15,10.15,0,0,0-4.67.61s2.5.38,1.55,2.5c0,0,.29-.38-.33-.42a9.13,9.13,0,0,1-2.92-.52c-.57-.43-1.8-1.66-2.88-1.51s-2.12.18-1.89.66c0,0-1.32-.52-.47-1.32a5.6,5.6,0,0,0-2-.95A4.64,4.64,0,0,1,1140,263a11.86,11.86,0,0,1-3,.05s-2.26,0-2.4-.9-2.74,1.79-3.5,1.09a.86.86,0,0,1-1.13-.1s-1.41.52-1.32-.38a1.74,1.74,0,0,0-1.46.19s-1.51,5.43-1.61,6.33-3.3,3-4.25,3c-.66,0-.56-.47-.56-.47a28.28,28.28,0,0,1-2,2.54c-.81.81-2.36,1.66-2.18-.33a11.76,11.76,0,0,1,1.51-4.15s-3.87,6.56-5.42,6.32c0,0-2.32,1.66-2.41-.66,0,0-4.24,1.95-2.93-1.88.57-1.66,3.31-4.3,3.31-4.3s-3.86,3.3-4.11,3.45c-.56.33-2.83.18-1.41-2.08s2.59-2.74,2.59-2.74-2.45,1.84-3.3.9-.47-2.69,3.73-6.28c0,0-.62-1.18,1.93-3.11,0,0-.52-3,6.09-5.43,0,0,2.08-3.4,3.26-4.11,0,0-3,.66-2.84-1.32,0,0-2.64.57-2.5-2,0,0-3.21.52-2.59-2.41,0,0-3.92-.47-1.61-3.77,0,0-2.36.14-2.22-1.61a2.69,2.69,0,0,1-1-3,2.83,2.83,0,0,1-.42-2.83,1.9,1.9,0,0,1-.1-2.17s-3.63-.24-3.68-3.64a4,4,0,0,1-3.21-4.67s-4.43-2-3.06-5.38c0,0-3.5-1.7-3-5.38,0,0-4.44-2.45-2.46-5.1,0,0-5.62-3.87-2-6.37,0,0-4.2-3.68-3.12-5.47,0,0-3.3-2.79-1.32-4.53,0,0-1.78-3-.28-4.11,1.18-.85,2.41,3.26,8.21,5.71,0,0-1.25-1.24-1-2.12.14-.47.94,0,.94,0s-5.23-6.14-4.48-9.3c.64-2.67,1.46,2.5,7.5,8.12,0,0-2.12-5.67-1.18-7.36s1.08,2.45,3.59,6.41c3.21,5.05,7.79,7.6,8.73,8.88,0,0-4-6.07-3.68-11.42.28-5.1,3-5,3.21-4.72s-1.13,2.83-.38,6.46,4.58,12.7,11.94,18.88a14,14,0,0,1,8.92,5.52c3.59,4.91,10.53,15,13.93,18.08,0,0,4.34,3.2,12.08,2.92,4-.14,6.94-1.55,10.15,1A5.56,5.56,0,0,1,1164.63,239.19Z"/><g class="cls-2"><path class="cls-3" d="M168.35,406.75l-.07.16A.4.4,0,0,0,168.35,406.75Z"/><path class="cls-3" d="M178.57,374.67a5.54,5.54,0,0,0-2.07-5.94c-3.21-2.51-6.14-1-10.15-1a31.89,31.89,0,0,0-7.86.08,10.4,10.4,0,0,1,1.94-5.72c3.12-4,8.56-11.48,8.76-18.33s0-17.42,1-19.83-3.42-3.73-4.93.5-2.62,10.87-1.31,14.7c0,0-3.93-8.66-3.13-16.61,0,0-4-3.33-5,3.82-.64,4.55.4,11,.4,11a35.75,35.75,0,0,1-3.82-9.77s-4.74-.91-3.73,7.55c0,0-5.13-3.82-4.83,7.25a3.46,3.46,0,0,0-1.78.38,12.53,12.53,0,0,0-2.35-2.49c-1.81-1.21-6.34-4.23-9.37-8.46s-10.27-13.69-13.39-18.23-3.52,2.72,3.93,10.68a31.52,31.52,0,0,1-7.75-9c-2.12-3.62-4.13-2.82-3.23.4a15.86,15.86,0,0,0,5,7.75,76.93,76.93,0,0,1-7.45-5.33s-1.82,3.22,2.21,5.84c0,0-3.12-1.62-3.22-.61s-.6,3,6,7.76c0,0-3.52-1.72-4.53-1.72s-3,1.82,1,5.24c0,0-2.92,1.51,1,4.83,0,0-2.11,2.12,1.11,4.63a4.74,4.74,0,0,0,1.92,5.14s-1.52,2.72,1.91,4.73a3.79,3.79,0,0,0,2.52,4,3.41,3.41,0,0,0,.7,4s-1.11,1.51.81,3.32c0,0,.1,3,1.71,3.73,0,0,.4,1.51,1.41,1.91,0,0,.3,2.11,1.51,2.72,0,0,.1,2.62,2.21,2.52,0,0,0,1.61,2,1.61a1.52,1.52,0,0,0,1.91,1.1s-.43,1.46,2.76,1.29a3.48,3.48,0,0,0-.34,4.15s-1.28,2.11-.7,3.56l-1.29,1.64c-6.61,2.45-6.09,5.42-6.09,5.42-2.55,1.94-1.93,3.12-1.93,3.12-4.2,3.59-4.58,5.33-3.73,6.28.56.62,1.83,0,2.62-.45a9.2,9.2,0,0,0-1.91,2.29c-1.42,2.26.85,2.4,1.41,2.07.25-.14,4.11-3.44,4.11-3.44s-2.74,2.64-3.31,4.29c-1.31,3.83,2.93,1.89,2.93,1.89.1,2.31,2.41.66,2.41.66,1.49.23,5.08-5.74,5.4-6.28a11.6,11.6,0,0,0-1.48,4.11c-.19,2,1.36,1.13,2.17.33a28,28,0,0,0,2-2.55s-.1.47.56.47c1,0,4.16-2.12,4.25-3s1.61-6.32,1.61-6.32a1.74,1.74,0,0,1,1.46-.19c-.09.9,1.32.38,1.32.38a.85.85,0,0,0,1.13.09c.76.71,3.36-2,3.5-1.08s2.4.89,2.4.89a12.15,12.15,0,0,0,3,0,4.64,4.64,0,0,0,3.83,4.34,5.7,5.7,0,0,1,2,.94c-.85.8.47,1.32.47,1.32-.23-.47.8-.52,1.89-.66s2.31,1.09,2.88,1.51a8.86,8.86,0,0,0,2.92.52c.35,0,.41.16.4.27.75-2-1.62-2.34-1.62-2.34a10.2,10.2,0,0,1,4.67-.62c.8.1.8-.75.8-.75a.86.86,0,0,1,1,.28c.14-.8-.62-1.09-1.28-1a9.72,9.72,0,0,1-2.26-.28c-.48-1.85-3.68.7-5.2.85s-4.62-1.89-5.42-2.46.09-3.35.56-4.15a5.22,5.22,0,0,0,.29-2.5c1-.76,3.44-.52,3.44-.52s.24.28-1.18.71a1.43,1.43,0,0,0-1.18,1.6c-.47,1,.66,1.6.66,1.6-.23-.42.14-1.27.14-1.27.33-.05.81-.52,1.23-1.09a9,9,0,0,1,2.69-1.27c1.42-.28,4.44.57,4.44.57.47.14.38.37.38.37s.7,0,.14-1.08-2.83-1.09-2.83-1.09a14.89,14.89,0,0,1,4.2-.61c.56.09.61-.76.61-.76.42-.18,1.13.33,1.13.33a1.88,1.88,0,0,0-2.59-.8c-.48.19-4.2.47-4.2.47s.42-.66.66-1a3.29,3.29,0,0,0,.37-.89c0-.29.62-.33.62-.33-.66-.71-1.56,0-1.56,0-.71.23-1.75,2.45-2.45,2.64a39.54,39.54,0,0,1-4.68.05c-.42-.19.38-3.26.48-3.78s4.53-4.39,6.08-5.43,5-3.35,5.86-4.53,2.59-.75,3.39-.56S178.2,380,178.2,380C179.23,378.26,178.57,374.67,178.57,374.67Z"/></g><g class="cls-2"><path class="cls-3" d="M1074.36,361.65l-.06.16A.46.46,0,0,0,1074.36,361.65Z"/><path class="cls-3" d="M1084.59,329.57a5.58,5.58,0,0,0-2.08-5.95c-3.21-2.5-6.13-1-10.15-.94a31.89,31.89,0,0,0-7.86.08,10.4,10.4,0,0,1,1.94-5.72c3.13-4,8.56-11.48,8.77-18.33s0-17.42,1-19.83-3.42-3.73-4.93.5-2.62,10.87-1.31,14.7c0,0-3.93-8.66-3.12-16.61,0,0-4-3.33-5,3.82-.64,4.55.41,11,.41,11a35.6,35.6,0,0,1-3.83-9.77s-4.73-.91-3.73,7.55c0,0-5.13-3.82-4.83,7.25a3.43,3.43,0,0,0-1.77.38,12.82,12.82,0,0,0-2.36-2.49c-1.81-1.21-6.34-4.23-9.36-8.46s-10.27-13.7-13.4-18.23-3.52,2.72,3.93,10.68a31.52,31.52,0,0,1-7.75-9c-2.12-3.62-4.13-2.82-3.22.4a15.78,15.78,0,0,0,5,7.75,77.13,77.13,0,0,1-7.45-5.34s-1.81,3.23,2.21,5.85c0,0-3.12-1.62-3.22-.61s-.6,3,6,7.75c0,0-3.52-1.71-4.53-1.71s-3,1.82,1,5.24c0,0-2.92,1.51,1,4.83,0,0-2.12,2.12,1.1,4.63a4.74,4.74,0,0,0,1.92,5.14s-1.51,2.72,1.91,4.73a3.79,3.79,0,0,0,2.52,4,3.41,3.41,0,0,0,.7,4s-1.1,1.51.81,3.32c0,0,.1,3,1.71,3.73,0,0,.4,1.51,1.41,1.91,0,0,.3,2.11,1.51,2.72,0,0,.1,2.62,2.22,2.52,0,0,0,1.61,2,1.61a1.52,1.52,0,0,0,1.91,1.1s-.42,1.46,2.76,1.29a3.48,3.48,0,0,0-.34,4.15s-1.27,2.11-.7,3.56l-1.29,1.64c-6.6,2.45-6.09,5.42-6.09,5.42-2.54,1.94-1.93,3.12-1.93,3.12-4.2,3.58-4.58,5.33-3.73,6.27.56.63,1.83,0,2.62-.44a9,9,0,0,0-1.91,2.29c-1.42,2.26.85,2.4,1.41,2.07.25-.14,4.11-3.44,4.11-3.44s-2.74,2.64-3.3,4.29c-1.32,3.83,2.92,1.89,2.92,1.89.1,2.31,2.41.66,2.41.66,1.49.23,5.08-5.74,5.4-6.28a11.6,11.6,0,0,0-1.48,4.11c-.19,2,1.37,1.13,2.17.33a28,28,0,0,0,2-2.55s-.09.47.57.47c1,0,4.15-2.12,4.24-3s1.61-6.32,1.61-6.32a1.74,1.74,0,0,1,1.46-.19c-.09.9,1.32.38,1.32.38a.87.87,0,0,0,1.14.09c.75.71,3.35-2,3.49-1.08s2.41.89,2.41.89a12.19,12.19,0,0,0,3,0,4.64,4.64,0,0,0,3.82,4.34,5.5,5.5,0,0,1,2,.94c-.85.8.47,1.32.47,1.32-.23-.47.81-.52,1.89-.66s2.31,1.09,2.88,1.51a9,9,0,0,0,2.93.52c.34,0,.4.16.39.27.75-2-1.62-2.35-1.62-2.35a10.3,10.3,0,0,1,4.67-.61c.8.1.8-.75.8-.75a.86.86,0,0,1,1,.28c.14-.8-.61-1.09-1.28-1a9.58,9.58,0,0,1-2.26-.29c-.47-1.84-3.68.71-5.19.85s-4.63-1.88-5.43-2.45.09-3.35.57-4.15a5.31,5.31,0,0,0,.28-2.5c1-.76,3.44-.52,3.44-.52s.24.28-1.18.7a1.44,1.44,0,0,0-1.18,1.61c-.47,1,.67,1.6.67,1.6-.24-.42.14-1.27.14-1.27.33-.05.8-.52,1.22-1.09a9,9,0,0,1,2.69-1.27c1.42-.28,4.44.57,4.44.57.47.14.38.37.38.37s.71,0,.14-1.08-2.83-1.09-2.83-1.09a14.53,14.53,0,0,1,4.2-.61c.57.09.61-.76.61-.76.43-.18,1.13.33,1.13.33a1.88,1.88,0,0,0-2.59-.8c-.47.19-4.2.47-4.2.47s.42-.66.66-1a3.12,3.12,0,0,0,.38-.89c0-.29.61-.33.61-.33-.66-.71-1.56,0-1.56,0-.7.23-1.74,2.45-2.45,2.64a39.38,39.38,0,0,1-4.67.05c-.43-.19.37-3.26.47-3.78s4.53-4.39,6.09-5.43,5-3.35,5.85-4.53,2.59-.75,3.4-.56,2.5,2.87,2.5,2.87C1085.25,333.16,1084.59,329.57,1084.59,329.57Z"/></g><g class="cls-2"><path class="cls-3" d="M850.3,486.61a1.11,1.11,0,0,1-.07.16A.33.33,0,0,0,850.3,486.61Z"/><path class="cls-3" d="M860.52,454.54a5.56,5.56,0,0,0-2.07-6c-3.21-2.5-6.14-1-10.15-.94a31.19,31.19,0,0,0-7.86.07,10.43,10.43,0,0,1,1.94-5.72c3.12-4,8.56-11.48,8.76-18.32s0-17.42,1-19.84-3.42-3.73-4.94.5-2.61,10.88-1.3,14.7c0,0-3.93-8.66-3.13-16.61,0,0-4-3.32-5,3.83-.64,4.54.4,11,.4,11a35.59,35.59,0,0,1-3.82-9.77s-4.74-.9-3.73,7.56c0,0-5.13-3.83-4.83,7.25a3.46,3.46,0,0,0-1.78.38,12.64,12.64,0,0,0-2.35-2.5c-1.81-1.21-6.35-4.23-9.37-8.46S802,398,798.88,393.47s-3.52,2.72,3.93,10.67a31.52,31.52,0,0,1-7.75-9c-2.12-3.61-4.13-2.82-3.23.4a15.78,15.78,0,0,0,5,7.76,77.72,77.72,0,0,1-7.45-5.34s-1.82,3.22,2.21,5.84c0,0-3.12-1.61-3.22-.6s-.6,3,6,7.75c0,0-3.52-1.71-4.53-1.71s-3,1.81,1,5.23c0,0-2.92,1.51,1,4.84,0,0-2.11,2.11,1.11,4.63a4.71,4.71,0,0,0,1.91,5.13s-1.51,2.72,1.92,4.74a3.78,3.78,0,0,0,2.52,4,3.41,3.41,0,0,0,.7,4s-1.11,1.51.81,3.32c0,0,.1,3,1.71,3.73,0,0,.4,1.51,1.41,1.91,0,0,.3,2.12,1.51,2.72,0,0,.1,2.62,2.21,2.52,0,0,0,1.61,2,1.61a1.53,1.53,0,0,0,1.91,1.11s-.43,1.46,2.76,1.28a3.5,3.5,0,0,0-.34,4.16s-1.28,2.1-.7,3.56l-1.29,1.63c-6.61,2.45-6.09,5.43-6.09,5.43-2.55,1.93-1.93,3.11-1.93,3.11-4.2,3.59-4.58,5.34-3.73,6.28.56.62,1.82,0,2.62-.44a9.1,9.1,0,0,0-1.91,2.28c-1.42,2.27.85,2.41,1.41,2.08.25-.15,4.11-3.45,4.11-3.45s-2.74,2.64-3.31,4.3c-1.31,3.83,2.93,1.88,2.93,1.88.09,2.32,2.41.66,2.41.66,1.48.23,5.08-5.74,5.4-6.28a11.75,11.75,0,0,0-1.49,4.11c-.18,2,1.37,1.14,2.18.33a28.28,28.28,0,0,0,2-2.54s-.1.47.56.47c1,0,4.16-2.13,4.25-3s1.61-6.33,1.61-6.33a1.74,1.74,0,0,1,1.46-.19c-.09.9,1.32.38,1.32.38a.86.86,0,0,0,1.13.1c.76.7,3.35-2,3.5-1.09s2.4.9,2.4.9a11.86,11.86,0,0,0,3-.05,4.64,4.64,0,0,0,3.83,4.34,5.6,5.6,0,0,1,2,1c-.85.8.47,1.32.47,1.32-.24-.47.8-.52,1.89-.66s2.31,1.08,2.88,1.51a9.13,9.13,0,0,0,2.92.52c.35,0,.41.15.4.26.75-2-1.62-2.34-1.62-2.34a10.15,10.15,0,0,1,4.67-.61c.8.09.8-.76.8-.76a.86.86,0,0,1,1,.28c.14-.8-.62-1.08-1.28-1a9.19,9.19,0,0,1-2.26-.28c-.48-1.84-3.69.71-5.2.85s-4.62-1.89-5.42-2.46.09-3.35.56-4.15a5.35,5.35,0,0,0,.29-2.5c1-.75,3.44-.52,3.44-.52s.24.28-1.18.71a1.43,1.43,0,0,0-1.18,1.6c-.47,1,.66,1.61.66,1.61-.23-.43.14-1.28.14-1.28.33,0,.81-.52,1.23-1.08a8.8,8.8,0,0,1,2.69-1.28c1.42-.28,4.44.57,4.44.57.47.14.38.38.38.38s.7,0,.14-1.09-2.83-1.08-2.83-1.08a14.61,14.61,0,0,1,4.2-.62c.56.1.61-.75.61-.75.42-.19,1.13.33,1.13.33a1.88,1.88,0,0,0-2.59-.8c-.48.19-4.2.47-4.2.47s.42-.66.66-1a3.31,3.31,0,0,0,.37-.9c0-.28.62-.33.62-.33-.66-.71-1.56,0-1.56,0-.71.24-1.75,2.45-2.45,2.64a39.54,39.54,0,0,1-4.68.05c-.42-.19.38-3.26.48-3.78s4.53-4.38,6.08-5.42,5-3.35,5.86-4.53,2.59-.76,3.39-.57,2.51,2.88,2.51,2.88C861.18,458.12,860.52,454.54,860.52,454.54Z"/></g><g class="cls-2"><path class="cls-3" d="M366.39,506.85a.47.47,0,0,1-.06.15A.27.27,0,0,0,366.39,506.85Z"/><path class="cls-3" d="M376.62,474.77a5.57,5.57,0,0,0-2.08-5.95c-3.21-2.5-6.13-1-10.14-.94a31.89,31.89,0,0,0-7.86.08,10.29,10.29,0,0,1,1.94-5.72c3.12-4,8.56-11.48,8.76-18.33s0-17.42,1-19.84-3.43-3.72-4.94.51-2.62,10.87-1.31,14.7c0,0-3.92-8.66-3.12-16.62,0,0-4-3.32-5,3.83-.64,4.55.4,11,.4,11a35.65,35.65,0,0,1-3.83-9.76s-4.73-.91-3.72,7.55c0,0-5.14-3.83-4.84,7.25a3.43,3.43,0,0,0-1.77.38,13.56,13.56,0,0,0-2.35-2.5,35.87,35.87,0,0,1-9.37-8.45c-3-4.23-10.27-13.7-13.39-18.23s-3.53,2.72,3.93,10.67a31.63,31.63,0,0,1-7.76-9c-2.12-3.61-4.13-2.82-3.22.41a15.85,15.85,0,0,0,5,7.75,77.13,77.13,0,0,1-7.45-5.34s-1.81,3.22,2.22,5.84c0,0-3.12-1.61-3.22-.6s-.61,3,6,7.75c0,0-3.53-1.71-4.53-1.71s-3,1.81,1,5.24c0,0-2.92,1.51,1,4.83,0,0-2.11,2.11,1.11,4.63a4.72,4.72,0,0,0,1.91,5.14s-1.51,2.72,1.91,4.73a3.79,3.79,0,0,0,2.52,4,3.39,3.39,0,0,0,.71,4s-1.11,1.52.8,3.33c0,0,.1,3,1.71,3.72,0,0,.41,1.51,1.41,1.92,0,0,.31,2.11,1.51,2.72,0,0,.11,2.61,2.22,2.51,0,0,0,1.61,2,1.61a1.54,1.54,0,0,0,1.92,1.11s-.43,1.46,2.75,1.29a3.52,3.52,0,0,0-.34,4.15s-1.27,2.1-.69,3.56l-1.29,1.63c-6.61,2.46-6.09,5.43-6.09,5.43-2.55,1.94-1.94,3.12-1.94,3.12-4.2,3.58-4.57,5.33-3.73,6.27.57.63,1.83,0,2.62-.44a9.32,9.32,0,0,0-1.91,2.28c-1.41,2.27.85,2.41,1.42,2.08.25-.15,4.1-3.45,4.1-3.45s-2.73,2.65-3.3,4.3c-1.31,3.83,2.93,1.89,2.93,1.89.09,2.31,2.4.66,2.4.66,1.49.22,5.09-5.75,5.41-6.28a11.19,11.19,0,0,0-1.49,4.11c-.19,2,1.37,1.13,2.17.33a28,28,0,0,0,2-2.55s-.09.47.57.47c1,0,4.15-2.12,4.25-3s1.6-6.32,1.6-6.32a1.72,1.72,0,0,1,1.47-.19c-.1.89,1.32.37,1.32.37a.86.86,0,0,0,1.13.1c.76.71,3.35-2,3.49-1.09s2.41.9,2.41.9a11.9,11.9,0,0,0,3,0,4.62,4.62,0,0,0,3.82,4.34,5.6,5.6,0,0,1,2,.95c-.85.8.47,1.32.47,1.32-.24-.47.8-.52,1.89-.66s2.31,1.08,2.87,1.51a9.22,9.22,0,0,0,2.93.52c.35,0,.41.16.39.27.76-2-1.62-2.35-1.62-2.35a10.18,10.18,0,0,1,4.68-.61c.8.09.8-.76.8-.76a.86.86,0,0,1,.94.29c.14-.81-.61-1.09-1.27-1a9.68,9.68,0,0,1-2.27-.29c-.47-1.84-3.68.71-5.19.85s-4.62-1.89-5.43-2.45.1-3.35.57-4.16a5.3,5.3,0,0,0,.28-2.5c1-.75,3.45-.52,3.45-.52s.23.29-1.18.71a1.43,1.43,0,0,0-1.18,1.61c-.47,1,.66,1.6.66,1.6-.24-.42.14-1.27.14-1.27.33-.05.8-.52,1.23-1.09a8.86,8.86,0,0,1,2.69-1.27c1.41-.29,4.43.56,4.43.56.48.15.38.38.38.38s.71,0,.14-1.08-2.83-1.09-2.83-1.09a14.57,14.57,0,0,1,4.2-.61c.57.09.62-.76.62-.76.42-.19,1.13.33,1.13.33a1.89,1.89,0,0,0-2.6-.8c-.47.19-4.2.47-4.2.47s.43-.66.66-1a3.13,3.13,0,0,0,.38-.9c0-.28.61-.33.61-.33-.66-.7-1.55,0-1.55,0-.71.24-1.75,2.46-2.46,2.65a41.29,41.29,0,0,1-4.67,0c-.42-.19.38-3.25.47-3.77s4.53-4.39,6.09-5.43,5-3.35,5.85-4.53,2.6-.76,3.4-.57,2.5,2.88,2.5,2.88C377.28,478.36,376.62,474.77,376.62,474.77Z"/></g><g class="cls-2"><path class="cls-3" d="M227.18,459.44l-.06.15A.38.38,0,0,0,227.18,459.44Z"/><path class="cls-3" d="M276.39,414.05c-3.12,1.79-8.12,2.45-8.12,2.45a14,14,0,0,0,7.93-5.66,19.43,19.43,0,0,1-12.74,3.78c11.7-2.46,12-9.73,12-9.73-4,6-9.06,8.59-19.91,10.39A197.17,197.17,0,0,1,229,417.41c-.37-1.9-1.1-4.17-3.1-5.21,8.43-3.57,18.18-9.74,17.84-19.15-.19-5.19-1.42,1.7-4.91,6.51,0,0,1.61-7.36-.19-9s-2.17,3.5-2.17,3.5-2.36-2-2.93,3.49c0,0-1.22-1.23-4.43,4.81,0,0-1-1.7-2.17.38-1,1.83-7.43,8.14-12.17,11-3.34,1.34-6.11,2.9-8.17,3.67-3.37,1.26-9.46,8.24-8.85,14.51a80.86,80.86,0,0,0-5.5,6.19c-.86,1.07-3.26,4.1-3.26,4.1-6.61,2.46-6.09,5.43-6.09,5.43-2.55,1.94-1.93,3.12-1.93,3.12-4.2,3.58-4.58,5.33-3.73,6.27.56.63,1.83,0,2.62-.44a9.1,9.1,0,0,0-1.91,2.28c-1.42,2.27.85,2.41,1.41,2.08.25-.14,4.11-3.45,4.11-3.45s-2.74,2.65-3.3,4.3c-1.32,3.83,2.92,1.89,2.92,1.89.1,2.31,2.41.66,2.41.66,1.49.22,5.08-5.75,5.4-6.28a11.6,11.6,0,0,0-1.48,4.11c-.19,2,1.37,1.13,2.17.33a28,28,0,0,0,2-2.55s-.09.47.57.47c.94,0,4.15-2.12,4.24-3s1.61-6.32,1.61-6.32a1.7,1.7,0,0,1,1.46-.19c-.09.89,1.32.37,1.32.37a.87.87,0,0,0,1.14.1c.44.42,1.54-.37,2.39-.89a3.53,3.53,0,0,0,1.2.06c.47.68,2.31.64,2.31.64a11,11,0,0,0,2.28,0,2.61,2.61,0,0,0,.77.21,4.63,4.63,0,0,0,3.79,4.06,5.5,5.5,0,0,1,2,.94c-.85.8.47,1.32.47,1.32-.23-.47.81-.52,1.89-.66s2.31,1.09,2.88,1.51a9.22,9.22,0,0,0,2.93.52c.34,0,.4.16.39.27.75-2-1.62-2.35-1.62-2.35a10.16,10.16,0,0,1,4.67-.61c.8.09.8-.76.8-.76a.88.88,0,0,1,.95.29c.14-.81-.62-1.09-1.28-1a9.58,9.58,0,0,1-2.26-.29c-.47-1.84-3.68.71-5.19.85s-4.63-1.89-5.43-2.45c-.39-.28-.38-1.09-.21-1.94a2.7,2.7,0,0,0,.92-.52c2.36.48,3.21-1,3.21-1a5.61,5.61,0,0,0,4-1.61,4,4,0,0,0,3.55-1,.18.18,0,0,1,0,.17s.49,0,.32-.64a1.64,1.64,0,0,0,.15-.3,4,4,0,0,0,2.83-1.14c3.4,1.14,5.76-2,5.76-2,5,1.7,6-2.83,6-2.83,5.09.76,5.75-3.4,5.75-3.4,5.19,0,4.91-4,4.91-4,8.31-1.42,4.72-5.19,4.72-5.19,10.86-3,5.85-5,5.85-5,8-2.54,6-4.72,6-4.72A15.53,15.53,0,0,0,276.39,414.05Z"/></g><g class="cls-2"><path class="cls-3" d="M954.26,433.74l-.07.16A.4.4,0,0,0,954.26,433.74Z"/><path class="cls-3" d="M1003.47,388.35c-3.12,1.8-8.12,2.46-8.12,2.46a14,14,0,0,0,7.93-5.67,19.45,19.45,0,0,1-12.75,3.78c11.71-2.46,12-9.72,12-9.72-4,6-9.06,8.59-19.91,10.38a195.57,195.57,0,0,1-26.55,2.13c-.36-1.9-1.09-4.16-3.09-5.21,8.42-3.57,18.18-9.74,17.84-19.15-.19-5.19-1.42,1.7-4.91,6.51,0,0,1.6-7.36-.19-9s-2.17,3.49-2.17,3.49-2.36-2-2.93,3.49c0,0-1.22-1.23-4.43,4.81,0,0-1-1.69-2.18.38-1,1.83-7.42,8.14-12.16,11-3.34,1.34-6.11,2.9-8.18,3.67-3.36,1.27-9.45,8.24-8.84,14.52a76.77,76.77,0,0,0-5.5,6.18c-.87,1.07-3.26,4.11-3.26,4.11C909.45,419,910,422,910,422c-2.55,1.94-1.93,3.12-1.93,3.12-4.2,3.58-4.58,5.33-3.73,6.28.56.62,1.82,0,2.62-.45a9,9,0,0,0-1.91,2.29c-1.42,2.26.84,2.4,1.41,2.07.25-.14,4.11-3.44,4.11-3.44s-2.74,2.64-3.31,4.29c-1.31,3.83,2.93,1.89,2.93,1.89.09,2.31,2.41.66,2.41.66,1.48.23,5.08-5.74,5.4-6.28a11.75,11.75,0,0,0-1.49,4.11c-.18,2,1.37,1.13,2.18.33a28,28,0,0,0,2-2.55s-.1.47.56.47c.95,0,4.16-2.12,4.25-3s1.61-6.32,1.61-6.32a1.74,1.74,0,0,1,1.46-.19c-.1.9,1.32.38,1.32.38a.85.85,0,0,0,1.13.09c.45.42,1.55-.37,2.39-.89a3.35,3.35,0,0,0,1.21.06c.47.68,2.3.64,2.3.64a12,12,0,0,0,2.29,0,2.83,2.83,0,0,0,.77.2,4.61,4.61,0,0,0,3.79,4.06,5.7,5.7,0,0,1,2,.94c-.85.8.47,1.32.47,1.32-.24-.47.8-.52,1.89-.66s2.31,1.09,2.88,1.51a8.86,8.86,0,0,0,2.92.52c.35,0,.41.16.4.27.75-2-1.62-2.34-1.62-2.34a10.2,10.2,0,0,1,4.67-.62c.8.1.8-.75.8-.75a.84.84,0,0,1,.94.28c.15-.8-.61-1.09-1.27-1a9.72,9.72,0,0,1-2.26-.28c-.48-1.85-3.69.7-5.2.84s-4.62-1.88-5.42-2.45c-.4-.28-.38-1.09-.21-1.93a2.93,2.93,0,0,0,.91-.52,2.86,2.86,0,0,0,3.21-1,5.65,5.65,0,0,0,4-1.61,3.93,3.93,0,0,0,3.55-1,.17.17,0,0,1,0,.17s.5,0,.33-.64a3.31,3.31,0,0,0,.15-.3,3.93,3.93,0,0,0,2.83-1.13c3.4,1.13,5.76-2,5.76-2,5,1.7,5.94-2.83,5.94-2.83,5.1.76,5.76-3.39,5.76-3.39,5.19,0,4.91-4,4.91-4,8.31-1.42,4.72-5.19,4.72-5.19,10.85-3,5.85-5,5.85-5,8-2.55,5.95-4.72,5.95-4.72A15.78,15.78,0,0,0,1003.47,388.35Z"/></g><g class="cls-2"><path class="cls-3" d="M494.57,535.12a.76.76,0,0,1-.06.16A.27.27,0,0,0,494.57,535.12Z"/><path class="cls-3" d="M504.8,503.05a5.57,5.57,0,0,0-2.08-5.95c-3.21-2.5-6.13-1-10.14-.94-.33,0-.79,0-1.36-.09.5-.87,1.06-2.39-.45-3.23-.8-.45-2.32-.39-4.46.12-.5-2.52-1.8-7.52-4.49-9.5-3.67-2.7-15.64-6.58-52.41,3.67-7.89,2.19,1.84,3,5.72,2.26,0,0-15.42,4.85-6.36,5.82,0,0-.33,2.91,4,2.59,0,0,.1,1.83,4.42,1.29,0,0,1,2.38,5.07,1.3,0,0,1.18,1.83,6.57,1,0,0,3.56,2.8,7.66,2.05a46.84,46.84,0,0,0,7-1c-7.39,3.65-16,8.17-25.44,13.35-4.32,2.36-.54,2.7-.54,2.7s-4,3.66.43,3.12,17.15-6.14,21.89-8.41l.24.11c-.14.18-.28.35-.43.52L456.38,518c-6.61,2.45-6.09,5.43-6.09,5.43-2.55,1.93-1.94,3.11-1.94,3.11-4.2,3.59-4.57,5.34-3.73,6.28.57.62,1.83,0,2.62-.44a9.32,9.32,0,0,0-1.91,2.28c-1.41,2.27.85,2.41,1.42,2.08.25-.15,4.1-3.45,4.1-3.45s-2.73,2.64-3.3,4.3c-1.31,3.83,2.93,1.88,2.93,1.88.09,2.32,2.4.67,2.4.67,1.49.22,5.09-5.75,5.41-6.29a11.35,11.35,0,0,0-1.49,4.11c-.19,2,1.37,1.14,2.17.33a28.28,28.28,0,0,0,2-2.54s-.09.47.57.47c1,0,4.15-2.13,4.25-3s1.6-6.33,1.6-6.33a1.76,1.76,0,0,1,1.47-.19c-.1.9,1.32.38,1.32.38a.86.86,0,0,0,1.13.1c.76.7,3.35-2,3.49-1.09s2.41.9,2.41.9a11.9,11.9,0,0,0,3,0,4.63,4.63,0,0,0,3.82,4.34,5.72,5.72,0,0,1,2,.95c-.85.8.47,1.32.47,1.32-.24-.47.8-.52,1.89-.66s2.31,1.08,2.87,1.51a9.22,9.22,0,0,0,2.93.52c.35,0,.41.15.39.26.76-2-1.62-2.34-1.62-2.34a10.18,10.18,0,0,1,4.68-.61c.8.09.8-.76.8-.76a.86.86,0,0,1,.94.28c.14-.8-.61-1.08-1.27-1a9.29,9.29,0,0,1-2.27-.28c-.47-1.84-3.68.71-5.19.85s-4.62-1.89-5.43-2.45.1-3.36.57-4.16a5.3,5.3,0,0,0,.28-2.5c1-.75,3.45-.52,3.45-.52s.23.28-1.18.71a1.42,1.42,0,0,0-1.18,1.6c-.47,1,.66,1.61.66,1.61-.24-.43.14-1.28.14-1.28.33,0,.8-.51,1.23-1.08s2.69-1.28,2.69-1.28c1.41-.28,4.43.57,4.43.57.48.14.38.38.38.38s.71,0,.14-1.09S494,520.7,494,520.7a14.65,14.65,0,0,1,4.2-.62c.57.1.62-.75.62-.75.42-.19,1.13.33,1.13.33a1.89,1.89,0,0,0-2.6-.8c-.47.19-4.2.47-4.2.47s.43-.66.66-1a3.13,3.13,0,0,0,.38-.9c0-.28.61-.33.61-.33-.66-.71-1.55,0-1.55,0-.71.24-1.75,2.46-2.46,2.64a39.38,39.38,0,0,1-4.67,0c-.42-.19.38-3.26.47-3.77s4.53-4.39,6.09-5.43,5-3.35,5.85-4.53,2.6-.76,3.4-.57,2.5,2.88,2.5,2.88C505.46,506.63,504.8,503.05,504.8,503.05Z"/></g><g class="cls-2"><path class="cls-3" d="M739.66,524.12a.77.77,0,0,1-.07.16A.33.33,0,0,0,739.66,524.12Z"/><path class="cls-3" d="M749.88,492.05a5.58,5.58,0,0,0-2.07-5.95c-3.21-2.5-6.14-1-10.15-.94-.33,0-.79,0-1.36-.09.5-.87,1.07-2.39-.45-3.23-.8-.44-2.31-.39-4.46.12-.5-2.52-1.79-7.52-4.49-9.5-3.66-2.7-15.63-6.58-52.4,3.67-7.89,2.19,1.83,3,5.71,2.26,0,0-15.42,4.85-6.36,5.82,0,0-.32,2.92,4,2.59,0,0,.11,1.83,4.42,1.3,0,0,1,2.37,5.07,1.29,0,0,1.18,1.83,6.58,1,0,0,3.55,2.8,7.65,2.05a46.67,46.67,0,0,0,7-1c-7.39,3.65-16,8.17-25.44,13.35-4.32,2.36-.54,2.7-.54,2.7s-4,3.66.43,3.12,17.15-6.14,21.9-8.41a1.59,1.59,0,0,0,.23.11l-.42.52c-.87,1.08-3.26,4.11-3.26,4.11-6.61,2.46-6.09,5.43-6.09,5.43-2.55,1.93-1.93,3.11-1.93,3.11-4.2,3.59-4.58,5.34-3.73,6.28.56.63,1.82,0,2.62-.44a9.1,9.1,0,0,0-1.91,2.28c-1.42,2.27.84,2.41,1.41,2.08.25-.15,4.11-3.45,4.11-3.45s-2.74,2.65-3.31,4.3c-1.31,3.83,2.93,1.89,2.93,1.89.09,2.31,2.41.66,2.41.66,1.48.22,5.08-5.75,5.4-6.29a11.75,11.75,0,0,0-1.49,4.11c-.19,2,1.37,1.14,2.17.34a28.2,28.2,0,0,0,2-2.55s-.1.47.56.47c.95,0,4.16-2.13,4.25-3s1.61-6.33,1.61-6.33a1.72,1.72,0,0,1,1.46-.18c-.1.89,1.32.37,1.32.37a.86.86,0,0,0,1.13.1c.76.71,3.35-2,3.5-1.09s2.4.9,2.4.9a11.86,11.86,0,0,0,3,0,4.62,4.62,0,0,0,3.83,4.34,5.6,5.6,0,0,1,2,.95c-.85.8.47,1.32.47,1.32-.24-.47.8-.52,1.89-.66s2.31,1.08,2.88,1.51a9.13,9.13,0,0,0,2.92.52c.35,0,.41.15.4.26.75-2-1.62-2.34-1.62-2.34a10.15,10.15,0,0,1,4.67-.61c.8.09.8-.76.8-.76a.86.86,0,0,1,.94.29c.15-.81-.61-1.09-1.27-1a9.29,9.29,0,0,1-2.27-.28c-.47-1.84-3.68.71-5.19.85s-4.62-1.89-5.42-2.45.09-3.35.56-4.16a5.35,5.35,0,0,0,.29-2.5c1-.75,3.44-.52,3.44-.52s.24.29-1.18.71a1.42,1.42,0,0,0-1.18,1.6c-.47,1,.66,1.61.66,1.61-.23-.43.14-1.27.14-1.27.33,0,.81-.52,1.23-1.09a8.73,8.73,0,0,1,2.69-1.27c1.42-.29,4.44.56,4.44.56.47.14.37.38.37.38s.71,0,.15-1.09-2.84-1.08-2.84-1.08a14.7,14.7,0,0,1,4.2-.62c.57.1.62-.75.62-.75.42-.19,1.13.33,1.13.33a1.88,1.88,0,0,0-2.59-.8c-.48.19-4.21.47-4.21.47s.43-.66.67-1a3.31,3.31,0,0,0,.37-.9c0-.28.62-.33.62-.33-.66-.71-1.56,0-1.56,0-.71.24-1.75,2.46-2.46,2.64a39.37,39.37,0,0,1-4.67.05c-.42-.19.38-3.25.47-3.77s4.54-4.39,6.09-5.43,5-3.35,5.86-4.53,2.59-.76,3.39-.57,2.5,2.88,2.5,2.88C750.54,495.63,749.88,492.05,749.88,492.05Z"/></g><g class="cls-2"><path class="cls-3" d="M613.92,542.2a1,1,0,0,1-.07.15A.33.33,0,0,0,613.92,542.2Z"/><path class="cls-3" d="M624.14,510.12a5.56,5.56,0,0,0-2.07-5.95c-3.21-2.5-6.14-1-10.15-.94a32.07,32.07,0,0,0-7.84.07,10.66,10.66,0,0,0-7-.34c-4.78,1.32-12.72,8.16-20,14.69-3.54,1.3-7.08,2.44-10.41,3.36-9.23,2.57-11.8,1.88-13.68,4-.74.82,1.79-.52,7-.1,2.63.21,5.39.46,8.18.71a46.49,46.49,0,0,1-5.48,4.27c-6.62,4-6.72,5.74.22,2a56.77,56.77,0,0,1,7.22-3.14,2.68,2.68,0,0,0-.51,1.71c-2.55,1.93-1.93,3.11-1.93,3.11-4.2,3.59-4.58,5.34-3.73,6.28.56.63,1.82,0,2.62-.44a9.1,9.1,0,0,0-1.91,2.28c-1.42,2.27.85,2.41,1.41,2.08.25-.15,4.11-3.45,4.11-3.45s-2.74,2.65-3.31,4.3c-1.31,3.83,2.93,1.89,2.93,1.89.09,2.31,2.41.66,2.41.66,1.48.22,5.08-5.75,5.4-6.28a11.58,11.58,0,0,0-1.49,4.11c-.18,2,1.37,1.13,2.18.33a29.5,29.5,0,0,0,2-2.55s-.1.47.56.47c.95,0,4.16-2.12,4.25-3s1.61-6.33,1.61-6.33a1.72,1.72,0,0,1,1.46-.18c-.1.89,1.32.37,1.32.37a.86.86,0,0,0,1.13.1c.76.71,3.35-2,3.5-1.09s2.4.9,2.4.9a11.86,11.86,0,0,0,3,0,4.62,4.62,0,0,0,3.83,4.34,5.6,5.6,0,0,1,2,1c-.85.8.47,1.32.47,1.32-.24-.47.8-.52,1.89-.66s2.31,1.08,2.88,1.51a9.13,9.13,0,0,0,2.92.52c.35,0,.41.16.4.27.75-2-1.62-2.35-1.62-2.35a10.15,10.15,0,0,1,4.67-.61c.8.09.8-.76.8-.76a.88.88,0,0,1,1,.29c.14-.81-.62-1.09-1.28-1a9.19,9.19,0,0,1-2.26-.28c-.48-1.84-3.69.71-5.2.85s-4.62-1.89-5.42-2.45.09-3.35.56-4.16a5.35,5.35,0,0,0,.29-2.5c1-.75,3.44-.52,3.44-.52s.24.29-1.18.71a1.44,1.44,0,0,0-1.18,1.61c-.47,1,.66,1.6.66,1.6-.23-.42.14-1.27.14-1.27.33-.05.81-.52,1.23-1.09a8.73,8.73,0,0,1,2.69-1.27c1.42-.29,4.44.56,4.44.56.47.14.37.38.37.38s.71,0,.15-1.09-2.84-1.08-2.84-1.08a14.29,14.29,0,0,1,4.21-.61c.56.09.61-.76.61-.76.42-.19,1.13.33,1.13.33a1.88,1.88,0,0,0-2.59-.8c-.48.19-4.2.47-4.2.47s.42-.66.66-1a3.31,3.31,0,0,0,.37-.9c0-.28.62-.33.62-.33a1.06,1.06,0,0,0-.34-.24,8.26,8.26,0,0,0,3.5-4.06,8.36,8.36,0,0,0-.06-6.08,6.06,6.06,0,0,0,.63-.66c.89-1.18,2.59-.76,3.39-.57s2.51,2.88,2.51,2.88C624.8,513.7,624.14,510.12,624.14,510.12Zm-14,16.71a41.47,41.47,0,0,1-4.68,0,.17.17,0,0,1-.06-.06,28.09,28.09,0,0,0,6.31-1.76C611.15,525.78,610.57,526.71,610.13,526.83Z"/></g></svg>