<?xml version="1.0" encoding="utf-8"?>
<!-- Generator: Adobe Illustrator 24.2.1, SVG Export Plug-In . SVG Version: 6.00 Build 0)  -->
<svg version="1.1" id="圖層_1" xmlns="http://www.w3.org/2000/svg" xmlns:xlink="http://www.w3.org/1999/xlink" x="0px" y="0px"
	 viewBox="0 0 1506.3 251.4" style="enable-background:new 0 0 1506.3 251.4;" xml:space="preserve">
<path d="M251.3,135.4c0,0,0.7,3.6-0.4,5.3c0,0-1.7-2.7-2.5-2.9s-2.5-0.6-3.4,0.6c-0.9,1.2-4.3,3.5-5.9,4.5c-1.6,1-6,4.9-6.1,5.4
	c-0.1,0.5-0.9,3.6-0.5,3.8c0,0,4,0.1,4.7,0c0.7-0.2,1.7-2.4,2.5-2.6c0,0,0.9-0.7,1.6,0c0,0-0.6,0-0.6,0.3c0,0-0.1,0.6-0.4,0.9
	c-0.2,0.3-0.7,1-0.7,1s3.7-0.3,4.2-0.5c0.5-0.2,1.7-0.7,2.6,0.8c0,0-0.7-0.5-1.1-0.3c0,0,0,0.8-0.6,0.8c-0.6-0.1-2.9,0.2-4.2,0.6
	c0,0,2.3,0,2.8,1.1s-0.1,1.1-0.1,1.1s0.1-0.2-0.4-0.4c0,0-3-0.8-4.4-0.6c0,0-2.3,0.7-2.7,1.3c-0.4,0.6-0.9,1-1.2,1.1
	c0,0-0.4,0.8-0.1,1.3c0,0-1.1-0.6-0.7-1.6c0,0-0.2-1.2,1.2-1.6c1.4-0.4,1.2-0.7,1.2-0.7s-2.5-0.2-3.4,0.5c0,0,0.2,1.7-0.3,2.5
	c-0.5,0.8-1.4,3.6-0.6,4.2c0.8,0.6,3.9,2.6,5.4,2.5c1.5-0.1,4.7-2.7,5.2-0.8c0,0,1.6,0.4,2.3,0.3c0.7-0.1,1.4,0.2,1.3,1
	c0,0-0.4-0.5-0.9-0.3c0,0,0,0.8-0.8,0.8c-0.8-0.1-2.3-0.2-4.7,0.6c0,0,2.5,0.4,1.6,2.5c0,0,0.3-0.4-0.3-0.4c0,0-2.4-0.1-2.9-0.5
	c-0.6-0.4-1.8-1.7-2.9-1.5s-2.1,0.2-1.9,0.7c0,0-1.3-0.5-0.5-1.3c0,0-0.7-0.6-2-0.9s-3.5-1.1-3.8-4.3c0,0-1.4,0.2-3,0
	c0,0-2.3,0-2.4-0.9c-0.1-0.9-2.7,1.8-3.5,1.1c0,0-0.5,0.4-1.1-0.1c0,0-1.4,0.5-1.3-0.4c0,0-0.8-0.3-1.5,0.2c0,0-1.5,5.4-1.6,6.3
	s-3.3,3-4.2,3c-0.7,0-0.6-0.5-0.6-0.5s-1.3,1.9-2,2.5c-0.8,0.8-2.4,1.7-2.2-0.3c0.2-2,1.5-4.2,1.5-4.2s-3.9,6.6-5.4,6.3
	c0,0-2.3,1.7-2.4-0.7c0,0-4.2,1.9-2.9-1.9c0.6-1.7,3.3-4.3,3.3-4.3s-3.9,3.3-4.1,3.4c-0.6,0.3-2.8,0.2-1.4-2.1s2.6-2.7,2.6-2.7
	s-2.5,1.8-3.3,0.9s-0.5-2.7,3.7-6.3c0,0-0.6-1.2,1.9-3.1c0,0-0.5-3,6.1-5.4c0,0,2.1-3.4,3.3-4.1c0,0-3,0.7-2.8-1.3
	c0,0-2.6,0.6-2.5-2c0,0-3.2,0.5-2.6-2.4c0,0-3.9-0.5-1.6-3.8c0,0-2.4,0.1-2.2-1.6c0,0-1.7-1.2-1-3c0,0-1-1-0.4-2.8
	c0,0-0.8-1.1-0.1-2.2c0,0-3.6-0.2-3.7-3.6c0,0-3.8-0.8-3.2-4.7c0,0-4.4-2-3.1-5.4c0,0-3.5-1.7-3-5.4c0,0-4.4-2.5-2.5-5.1
	c0,0-5.6-3.9-2-6.4c0,0-4.2-3.7-3.1-5.5c0,0-3.3-2.8-1.3-4.5c0,0-1.8-3-0.3-4.1c1.2-0.8,2.4,3.3,8.2,5.7c0,0-1.3-1.2-1-2.1
	c0.1-0.5,0.9,0,0.9,0s-5.2-6.1-4.5-9.3c0.6-2.7,1.5,2.5,7.5,8.1c0,0-2.1-5.7-1.2-7.4c0.9-1.7,1.1,2.5,3.6,6.4c3.2,5,7.8,7.6,8.7,8.9
	c0,0-4-6.1-3.7-11.4c0.3-5.1,3-5,3.2-4.7c0.2,0.2-1.1,2.8-0.4,6.5s4.6,12.7,11.9,18.9c0,0,5.3,0.6,8.9,5.5
	c3.6,4.9,10.5,15,13.9,18.1c0,0,4.3,3.2,12.1,2.9c4-0.1,6.9-1.6,10.1,0.9C252.5,132,251.3,135.4,251.3,135.4z"/>
<path d="M1346.5,135.4c0,0,0.7,3.6-0.4,5.3c0,0-1.7-2.7-2.5-2.9c-0.8-0.2-2.5-0.6-3.4,0.6s-4.3,3.5-5.9,4.5s-6,4.9-6.1,5.4
	c-0.1,0.5-0.9,3.6-0.5,3.8c0,0,4,0.1,4.7,0c0.7-0.2,1.7-2.4,2.5-2.6c0,0,0.9-0.7,1.6,0c0,0-0.6,0-0.6,0.3c0,0-0.1,0.6-0.4,0.9
	c-0.2,0.3-0.7,1-0.7,1s3.7-0.3,4.2-0.5s1.7-0.7,2.6,0.8c0,0-0.7-0.5-1.1-0.3c0,0,0,0.8-0.6,0.8c-0.6-0.1-2.9,0.2-4.2,0.6
	c0,0,2.3,0,2.8,1.1c0.6,1.1-0.1,1.1-0.1,1.1s0.1-0.2-0.4-0.4c0,0-3-0.8-4.4-0.6c0,0-2.3,0.7-2.7,1.3c-0.4,0.6-0.9,1-1.2,1.1
	c0,0-0.4,0.8-0.1,1.3c0,0-1.1-0.6-0.7-1.6c0,0-0.2-1.2,1.2-1.6c1.4-0.4,1.2-0.7,1.2-0.7s-2.5-0.2-3.4,0.5c0,0,0.2,1.7-0.3,2.5
	c-0.5,0.8-1.4,3.6-0.6,4.2c0.8,0.6,3.9,2.6,5.4,2.5c1.5-0.1,4.7-2.7,5.2-0.8c0,0,1.6,0.4,2.3,0.3s1.4,0.2,1.3,1c0,0-0.4-0.5-0.9-0.3
	c0,0,0,0.8-0.8,0.8s-2.3-0.2-4.7,0.6c0,0,2.5,0.4,1.6,2.5c0,0,0.3-0.4-0.3-0.4c0,0-2.4-0.1-2.9-0.5c-0.6-0.4-1.8-1.7-2.9-1.5
	c-1.1,0.1-2.1,0.2-1.9,0.7c0,0-1.3-0.5-0.5-1.3c0,0-0.7-0.6-2-0.9c-1.3-0.4-3.5-1.1-3.8-4.3c0,0-1.4,0.2-3,0c0,0-2.3,0-2.4-0.9
	s-2.7,1.8-3.5,1.1c0,0-0.5,0.4-1.1-0.1c0,0-1.4,0.5-1.3-0.4c0,0-0.8-0.3-1.5,0.2c0,0-1.5,5.4-1.6,6.3c-0.1,0.9-3.3,3-4.2,3
	c-0.7,0-0.6-0.5-0.6-0.5s-1.3,1.9-2,2.5c-0.8,0.8-2.4,1.7-2.2-0.3c0.2-2,1.5-4.2,1.5-4.2s-3.9,6.6-5.4,6.3c0,0-2.3,1.7-2.4-0.7
	c0,0-4.2,1.9-2.9-1.9c0.6-1.7,3.3-4.3,3.3-4.3s-3.9,3.3-4.1,3.4c-0.6,0.3-2.8,0.2-1.4-2.1s2.6-2.7,2.6-2.7s-2.5,1.8-3.3,0.9
	c-0.8-0.9-0.5-2.7,3.7-6.3c0,0-0.6-1.2,1.9-3.1c0,0-0.5-3,6.1-5.4c0,0,2.1-3.4,3.3-4.1c0,0-3,0.7-2.8-1.3c0,0-2.6,0.6-2.5-2
	c0,0-3.2,0.5-2.6-2.4c0,0-3.9-0.5-1.6-3.8c0,0-2.4,0.1-2.2-1.6c0,0-1.7-1.2-1-3c0,0-1-1-0.4-2.8c0,0-0.8-1.1-0.1-2.2
	c0,0-3.6-0.2-3.7-3.6c0,0-3.8-0.8-3.2-4.7c0,0-4.4-2-3.1-5.4c0,0-3.5-1.7-3-5.4c0,0-4.4-2.5-2.5-5.1c0,0-5.6-3.9-2-6.4
	c0,0-4.2-3.7-3.1-5.5c0,0-3.3-2.8-1.3-4.5c0,0-1.8-3-0.3-4.1c1.2-0.8,2.4,3.3,8.2,5.7c0,0-1.3-1.2-1-2.1c0.1-0.5,0.9,0,0.9,0
	s-5.2-6.1-4.5-9.3c0.6-2.7,1.5,2.5,7.5,8.1c0,0-2.1-5.7-1.2-7.4c0.9-1.7,1.1,2.5,3.6,6.4c3.2,5,7.8,7.6,8.7,8.9c0,0-4-6.1-3.7-11.4
	c0.3-5.1,3-5,3.2-4.7c0.2,0.2-1.1,2.8-0.4,6.5s4.6,12.7,11.9,18.9c0,0,5.3,0.6,8.9,5.5s10.5,15,13.9,18.1c0,0,4.3,3.2,12.1,2.9
	c4-0.1,6.9-1.6,10.1,0.9C1347.7,132,1346.5,135.4,1346.5,135.4z"/>
<g>
	<path d="M346.1,169c0,0.1,0,0.1-0.1,0.2C346.1,169.2,346.1,169.1,346.1,169z"/>
	<path d="M356.4,137c0,0,1.1-3.4-2.1-5.9c-3.2-2.5-6.1-1-10.1-0.9c-1.1,0-3.9-0.6-7.9,0.1c0.1-1.9,0.6-4,1.9-5.7
		c3.1-4,8.6-11.5,8.8-18.3c0.2-6.8,0-17.4,1-19.8c1-2.4-3.4-3.7-4.9,0.5c-1.5,4.2-2.6,10.9-1.3,14.7c0,0-3.9-8.7-3.1-16.6
		c0,0-4-3.3-5,3.8c-0.6,4.5,0.4,11,0.4,11c0.1,0.3-2.8-4.8-3.8-9.8c0,0-4.7-0.9-3.7,7.6c0,0-5.1-3.8-4.8,7.2c0,0-0.9-0.1-1.8,0.4
		c-0.8-1.1-1.7-2.1-2.4-2.5c-1.8-1.2-6.3-4.2-9.4-8.5c-3-4.2-10.3-13.7-13.4-18.2c-3.1-4.5-3.5,2.7,3.9,10.7c0,0-4.3-3.1-7.8-9
		c-2.1-3.6-4.1-2.8-3.2,0.4c0.9,3.2,3.1,6.3,5,7.8c0,0-4.9-3.1-7.5-5.3c0,0-1.8,3.2,2.2,5.8c0,0-3.1-1.6-3.2-0.6c-0.1,1-0.6,3,6,7.8
		c0,0-3.5-1.7-4.5-1.7c-1,0-3,1.8,1,5.2c0,0-2.9,1.5,1,4.8c0,0-2.1,2.1,1.1,4.6c0,0-1,2.8,1.9,5.1c0,0-1.5,2.7,1.9,4.7
		c0,0-0.4,3,2.5,4c0,0-1.2,2.3,0.7,4c0,0-1.1,1.5,0.8,3.3c0,0,0.1,3,1.7,3.7c0,0,0.4,1.5,1.4,1.9c0,0,0.3,2.1,1.5,2.7
		c0,0,0.1,2.6,2.2,2.5c0,0,0,1.6,2,1.6c0,0,0.3,1.4,1.9,1.1c0,0-0.4,1.5,2.8,1.3c-0.7,1-1.4,2.6-0.3,4.2c0,0-1.3,2.1-0.7,3.6
		c-0.7,0.9-1.3,1.6-1.3,1.6c-6.6,2.5-6.1,5.4-6.1,5.4c-2.5,1.9-1.9,3.1-1.9,3.1c-4.2,3.6-4.6,5.3-3.7,6.3c0.6,0.6,1.8,0,2.6-0.4
		c-0.5,0.4-1.2,1.1-1.9,2.3c-1.4,2.3,0.8,2.4,1.4,2.1c0.2-0.1,4.1-3.4,4.1-3.4s-2.7,2.6-3.3,4.3c-1.3,3.8,2.9,1.9,2.9,1.9
		c0.1,2.3,2.4,0.7,2.4,0.7c1.5,0.2,5.1-5.7,5.4-6.3c-0.2,0.3-1.3,2.3-1.5,4.1c-0.2,2,1.4,1.1,2.2,0.3c0.7-0.7,2-2.5,2-2.5
		s-0.1,0.5,0.6,0.5c0.9,0,4.2-2.1,4.2-3c0.1-0.9,1.6-6.3,1.6-6.3c0.6-0.5,1.5-0.2,1.5-0.2c-0.1,0.9,1.3,0.4,1.3,0.4
		c0.7,0.5,1.1,0.1,1.1,0.1c0.8,0.7,3.4-2,3.5-1.1c0.1,0.9,2.4,0.9,2.4,0.9c1.6,0.2,3,0,3,0c0.3,3.2,2.5,4,3.8,4.3
		c1.3,0.4,2,0.9,2,0.9c-0.8,0.8,0.5,1.3,0.5,1.3c-0.2-0.5,0.8-0.5,1.9-0.7c1.1-0.1,2.3,1.1,2.9,1.5c0.6,0.4,2.9,0.5,2.9,0.5
		c0.3,0,0.4,0.2,0.4,0.3c0.8-2-1.6-2.3-1.6-2.3c2.4-0.8,3.9-0.7,4.7-0.6s0.8-0.8,0.8-0.8c0.5-0.2,0.9,0.3,0.9,0.3
		c0.1-0.8-0.6-1.1-1.3-1s-2.3-0.3-2.3-0.3c-0.5-1.8-3.7,0.7-5.2,0.8c-1.5,0.1-4.6-1.9-5.4-2.5c-0.8-0.6,0.1-3.4,0.6-4.2
		c0.5-0.8,0.3-2.5,0.3-2.5c1-0.8,3.4-0.5,3.4-0.5s0.2,0.3-1.2,0.7s-1.2,1.6-1.2,1.6c-0.5,1,0.7,1.6,0.7,1.6
		c-0.2-0.4,0.1-1.3,0.1-1.3c0.3,0,0.8-0.5,1.2-1.1c0.4-0.6,2.7-1.3,2.7-1.3c1.4-0.3,4.4,0.6,4.4,0.6c0.5,0.1,0.4,0.4,0.4,0.4
		s0.7,0,0.1-1.1c-0.6-1.1-2.8-1.1-2.8-1.1c1.3-0.4,3.6-0.7,4.2-0.6c0.6,0.1,0.6-0.8,0.6-0.8c0.4-0.2,1.1,0.3,1.1,0.3
		c-0.8-1.5-2.1-1-2.6-0.8c-0.5,0.2-4.2,0.5-4.2,0.5s0.4-0.7,0.7-1c0.2-0.3,0.4-0.9,0.4-0.9c0-0.3,0.6-0.3,0.6-0.3
		c-0.7-0.7-1.6,0-1.6,0c-0.7,0.2-1.7,2.5-2.5,2.6c-0.7,0.2-4.7,0-4.7,0c-0.4-0.2,0.4-3.3,0.5-3.8c0.1-0.5,4.5-4.4,6.1-5.4
		c1.6-1,5-3.4,5.9-4.5s2.6-0.8,3.4-0.6c0.8,0.2,2.5,2.9,2.5,2.9C357,140.5,356.4,137,356.4,137z"/>
</g>
<g>
	<path d="M1222.3,169c0,0.1,0,0.1-0.1,0.2C1222.2,169.2,1222.3,169.1,1222.3,169z"/>
	<path d="M1232.5,137c0,0,1.1-3.4-2.1-5.9c-3.2-2.5-6.1-1-10.1-0.9c-1.1,0-3.9-0.6-7.9,0.1c0.1-1.9,0.6-4,1.9-5.7
		c3.1-4,8.6-11.5,8.8-18.3s0-17.4,1-19.8c1-2.4-3.4-3.7-4.9,0.5c-1.5,4.2-2.6,10.9-1.3,14.7c0,0-3.9-8.7-3.1-16.6c0,0-4-3.3-5,3.8
		c-0.6,4.5,0.4,11,0.4,11c0.1,0.3-2.8-4.8-3.8-9.8c0,0-4.7-0.9-3.7,7.6c0,0-5.1-3.8-4.8,7.2c0,0-0.9-0.1-1.8,0.4
		c-0.8-1.1-1.7-2.1-2.4-2.5c-1.8-1.2-6.3-4.2-9.4-8.5c-3-4.2-10.3-13.7-13.4-18.2c-3.1-4.5-3.5,2.7,3.9,10.7c0,0-4.3-3.1-7.8-9
		c-2.1-3.6-4.1-2.8-3.2,0.4c0.9,3.2,3.1,6.3,5,7.8c0,0-4.9-3.1-7.5-5.3c0,0-1.8,3.2,2.2,5.8c0,0-3.1-1.6-3.2-0.6c-0.1,1-0.6,3,6,7.8
		c0,0-3.5-1.7-4.5-1.7s-3,1.8,1,5.2c0,0-2.9,1.5,1,4.8c0,0-2.1,2.1,1.1,4.6c0,0-1,2.8,1.9,5.1c0,0-1.5,2.7,1.9,4.7c0,0-0.4,3,2.5,4
		c0,0-1.2,2.3,0.7,4c0,0-1.1,1.5,0.8,3.3c0,0,0.1,3,1.7,3.7c0,0,0.4,1.5,1.4,1.9c0,0,0.3,2.1,1.5,2.7c0,0,0.1,2.6,2.2,2.5
		c0,0,0,1.6,2,1.6c0,0,0.3,1.4,1.9,1.1c0,0-0.4,1.5,2.8,1.3c-0.7,1-1.4,2.6-0.3,4.2c0,0-1.3,2.1-0.7,3.6c-0.7,0.9-1.3,1.6-1.3,1.6
		c-6.6,2.5-6.1,5.4-6.1,5.4c-2.5,1.9-1.9,3.1-1.9,3.1c-4.2,3.6-4.6,5.3-3.7,6.3c0.6,0.6,1.8,0,2.6-0.4c-0.5,0.4-1.2,1.1-1.9,2.3
		c-1.4,2.3,0.8,2.4,1.4,2.1c0.2-0.1,4.1-3.4,4.1-3.4s-2.7,2.6-3.3,4.3c-1.3,3.8,2.9,1.9,2.9,1.9c0.1,2.3,2.4,0.7,2.4,0.7
		c1.5,0.2,5.1-5.7,5.4-6.3c-0.2,0.3-1.3,2.3-1.5,4.1c-0.2,2,1.4,1.1,2.2,0.3c0.7-0.7,2-2.5,2-2.5s-0.1,0.5,0.6,0.5
		c0.9,0,4.2-2.1,4.2-3c0.1-0.9,1.6-6.3,1.6-6.3c0.6-0.5,1.5-0.2,1.5-0.2c-0.1,0.9,1.3,0.4,1.3,0.4c0.7,0.5,1.1,0.1,1.1,0.1
		c0.8,0.7,3.4-2,3.5-1.1s2.4,0.9,2.4,0.9c1.6,0.2,3,0,3,0c0.3,3.2,2.5,4,3.8,4.3c1.3,0.4,2,0.9,2,0.9c-0.8,0.8,0.5,1.3,0.5,1.3
		c-0.2-0.5,0.8-0.5,1.9-0.7c1.1-0.1,2.3,1.1,2.9,1.5c0.6,0.4,2.9,0.5,2.9,0.5c0.3,0,0.4,0.2,0.4,0.3c0.8-2-1.6-2.3-1.6-2.3
		c2.4-0.8,3.9-0.7,4.7-0.6c0.8,0.1,0.8-0.8,0.8-0.8c0.5-0.2,0.9,0.3,0.9,0.3c0.1-0.8-0.6-1.1-1.3-1c-0.7,0.1-2.3-0.3-2.3-0.3
		c-0.5-1.8-3.7,0.7-5.2,0.8c-1.5,0.1-4.6-1.9-5.4-2.5c-0.8-0.6,0.1-3.4,0.6-4.2c0.5-0.8,0.3-2.5,0.3-2.5c1-0.8,3.4-0.5,3.4-0.5
		s0.2,0.3-1.2,0.7s-1.2,1.6-1.2,1.6c-0.5,1,0.7,1.6,0.7,1.6c-0.2-0.4,0.1-1.3,0.1-1.3c0.3,0,0.8-0.5,1.2-1.1
		c0.4-0.6,2.7-1.3,2.7-1.3c1.4-0.3,4.4,0.6,4.4,0.6c0.5,0.1,0.4,0.4,0.4,0.4s0.7,0,0.1-1.1c-0.6-1.1-2.8-1.1-2.8-1.1
		c1.3-0.4,3.6-0.7,4.2-0.6c0.6,0.1,0.6-0.8,0.6-0.8c0.4-0.2,1.1,0.3,1.1,0.3c-0.8-1.5-2.1-1-2.6-0.8c-0.5,0.2-4.2,0.5-4.2,0.5
		s0.4-0.7,0.7-1s0.4-0.9,0.4-0.9c0-0.3,0.6-0.3,0.6-0.3c-0.7-0.7-1.6,0-1.6,0c-0.7,0.2-1.7,2.5-2.5,2.6c-0.7,0.2-4.7,0-4.7,0
		c-0.4-0.2,0.4-3.3,0.5-3.8c0.1-0.5,4.5-4.4,6.1-5.4c1.6-1,5-3.4,5.9-4.5s2.6-0.8,3.4-0.6c0.8,0.2,2.5,2.9,2.5,2.9
		C1233.2,140.5,1232.5,137,1232.5,137z"/>
</g>
<g>
	<path d="M1003.2,169c0,0.1,0,0.1-0.1,0.2C1003.2,169.2,1003.2,169.1,1003.2,169z"/>
	<path d="M1013.5,137c0,0,1.1-3.4-2.1-5.9c-3.2-2.5-6.1-1-10.1-0.9c-1.1,0-3.9-0.6-7.9,0.1c0.1-1.9,0.6-4,1.9-5.7
		c3.1-4,8.6-11.5,8.8-18.3s0-17.4,1-19.8c1-2.4-3.4-3.7-4.9,0.5c-1.5,4.2-2.6,10.9-1.3,14.7c0,0-3.9-8.7-3.1-16.6c0,0-4-3.3-5,3.8
		c-0.6,4.5,0.4,11,0.4,11c0.1,0.3-2.8-4.8-3.8-9.8c0,0-4.7-0.9-3.7,7.6c0,0-5.1-3.8-4.8,7.2c0,0-0.9-0.1-1.8,0.4
		c-0.8-1.1-1.7-2.1-2.4-2.5c-1.8-1.2-6.3-4.2-9.4-8.5c-3-4.2-10.3-13.7-13.4-18.2c-3.1-4.5-3.5,2.7,3.9,10.7c0,0-4.3-3.1-7.8-9
		c-2.1-3.6-4.1-2.8-3.2,0.4c0.9,3.2,3.1,6.3,5,7.8c0,0-4.9-3.1-7.5-5.3c0,0-1.8,3.2,2.2,5.8c0,0-3.1-1.6-3.2-0.6c-0.1,1-0.6,3,6,7.8
		c0,0-3.5-1.7-4.5-1.7c-1,0-3,1.8,1,5.2c0,0-2.9,1.5,1,4.8c0,0-2.1,2.1,1.1,4.6c0,0-1,2.8,1.9,5.1c0,0-1.5,2.7,1.9,4.7
		c0,0-0.4,3,2.5,4c0,0-1.2,2.3,0.7,4c0,0-1.1,1.5,0.8,3.3c0,0,0.1,3,1.7,3.7c0,0,0.4,1.5,1.4,1.9c0,0,0.3,2.1,1.5,2.7
		c0,0,0.1,2.6,2.2,2.5c0,0,0,1.6,2,1.6c0,0,0.3,1.4,1.9,1.1c0,0-0.4,1.5,2.8,1.3c-0.7,1-1.4,2.6-0.3,4.2c0,0-1.3,2.1-0.7,3.6
		c-0.7,0.9-1.3,1.6-1.3,1.6c-6.6,2.5-6.1,5.4-6.1,5.4c-2.5,1.9-1.9,3.1-1.9,3.1c-4.2,3.6-4.6,5.3-3.7,6.3c0.6,0.6,1.8,0,2.6-0.4
		c-0.5,0.4-1.2,1.1-1.9,2.3c-1.4,2.3,0.8,2.4,1.4,2.1c0.2-0.1,4.1-3.4,4.1-3.4s-2.7,2.6-3.3,4.3c-1.3,3.8,2.9,1.9,2.9,1.9
		c0.1,2.3,2.4,0.7,2.4,0.7c1.5,0.2,5.1-5.7,5.4-6.3c-0.2,0.3-1.3,2.3-1.5,4.1c-0.2,2,1.4,1.1,2.2,0.3c0.7-0.7,2-2.5,2-2.5
		s-0.1,0.5,0.6,0.5c0.9,0,4.2-2.1,4.2-3c0.1-0.9,1.6-6.3,1.6-6.3c0.6-0.5,1.5-0.2,1.5-0.2c-0.1,0.9,1.3,0.4,1.3,0.4
		c0.7,0.5,1.1,0.1,1.1,0.1c0.8,0.7,3.4-2,3.5-1.1c0.1,0.9,2.4,0.9,2.4,0.9c1.6,0.2,3,0,3,0c0.3,3.2,2.5,4,3.8,4.3
		c1.3,0.4,2,0.9,2,0.9c-0.8,0.8,0.5,1.3,0.5,1.3c-0.2-0.5,0.8-0.5,1.9-0.7c1.1-0.1,2.3,1.1,2.9,1.5c0.6,0.4,2.9,0.5,2.9,0.5
		c0.3,0,0.4,0.2,0.4,0.3c0.8-2-1.6-2.3-1.6-2.3c2.4-0.8,3.9-0.7,4.7-0.6c0.8,0.1,0.8-0.8,0.8-0.8c0.5-0.2,0.9,0.3,0.9,0.3
		c0.1-0.8-0.6-1.1-1.3-1c-0.7,0.1-2.3-0.3-2.3-0.3c-0.5-1.8-3.7,0.7-5.2,0.8c-1.5,0.1-4.6-1.9-5.4-2.5c-0.8-0.6,0.1-3.4,0.6-4.2
		c0.5-0.8,0.3-2.5,0.3-2.5c1-0.8,3.4-0.5,3.4-0.5s0.2,0.3-1.2,0.7s-1.2,1.6-1.2,1.6c-0.5,1,0.7,1.6,0.7,1.6
		c-0.2-0.4,0.1-1.3,0.1-1.3c0.3,0,0.8-0.5,1.2-1.1s2.7-1.3,2.7-1.3c1.4-0.3,4.4,0.6,4.4,0.6c0.5,0.1,0.4,0.4,0.4,0.4s0.7,0,0.1-1.1
		s-2.8-1.1-2.8-1.1c1.3-0.4,3.6-0.7,4.2-0.6c0.6,0.1,0.6-0.8,0.6-0.8c0.4-0.2,1.1,0.3,1.1,0.3c-0.8-1.5-2.1-1-2.6-0.8
		c-0.5,0.2-4.2,0.5-4.2,0.5s0.4-0.7,0.7-1c0.2-0.3,0.4-0.9,0.4-0.9c0-0.3,0.6-0.3,0.6-0.3c-0.7-0.7-1.6,0-1.6,0
		c-0.7,0.2-1.7,2.5-2.5,2.6c-0.7,0.2-4.7,0-4.7,0c-0.4-0.2,0.4-3.3,0.5-3.8c0.1-0.5,4.5-4.4,6.1-5.4c1.6-1,5-3.4,5.9-4.5
		s2.6-0.8,3.4-0.6c0.8,0.2,2.5,2.9,2.5,2.9C1014.1,140.5,1013.5,137,1013.5,137z"/>
</g>
<g>
	<path d="M565.2,169c0,0.1,0,0.1-0.1,0.2C565.1,169.2,565.2,169.1,565.2,169z"/>
	<path d="M575.4,137c0,0,1.1-3.4-2.1-5.9s-6.1-1-10.1-0.9c-1.1,0-3.9-0.6-7.9,0.1c0.1-1.9,0.6-4,1.9-5.7c3.1-4,8.6-11.5,8.8-18.3
		c0.2-6.8,0-17.4,1-19.8c1-2.4-3.4-3.7-4.9,0.5c-1.5,4.2-2.6,10.9-1.3,14.7c0,0-3.9-8.7-3.1-16.6c0,0-4-3.3-5,3.8
		c-0.6,4.5,0.4,11,0.4,11c0.1,0.3-2.8-4.8-3.8-9.8c0,0-4.7-0.9-3.7,7.6c0,0-5.1-3.8-4.8,7.2c0,0-0.9-0.1-1.8,0.4
		c-0.8-1.1-1.7-2.1-2.4-2.5c-1.8-1.2-6.3-4.2-9.4-8.5c-3-4.2-10.3-13.7-13.4-18.2c-3.1-4.5-3.5,2.7,3.9,10.7c0,0-4.3-3.1-7.8-9
		c-2.1-3.6-4.1-2.8-3.2,0.4c0.9,3.2,3.1,6.3,5,7.8c0,0-4.9-3.1-7.5-5.3c0,0-1.8,3.2,2.2,5.8c0,0-3.1-1.6-3.2-0.6c-0.1,1-0.6,3,6,7.8
		c0,0-3.5-1.7-4.5-1.7c-1,0-3,1.8,1,5.2c0,0-2.9,1.5,1,4.8c0,0-2.1,2.1,1.1,4.6c0,0-1,2.8,1.9,5.1c0,0-1.5,2.7,1.9,4.7
		c0,0-0.4,3,2.5,4c0,0-1.2,2.3,0.7,4c0,0-1.1,1.5,0.8,3.3c0,0,0.1,3,1.7,3.7c0,0,0.4,1.5,1.4,1.9c0,0,0.3,2.1,1.5,2.7
		c0,0,0.1,2.6,2.2,2.5c0,0,0,1.6,2,1.6c0,0,0.3,1.4,1.9,1.1c0,0-0.4,1.5,2.8,1.3c-0.7,1-1.4,2.6-0.3,4.2c0,0-1.3,2.1-0.7,3.6
		c-0.7,0.9-1.3,1.6-1.3,1.6c-6.6,2.5-6.1,5.4-6.1,5.4c-2.5,1.9-1.9,3.1-1.9,3.1c-4.2,3.6-4.6,5.3-3.7,6.3c0.6,0.6,1.8,0,2.6-0.4
		c-0.5,0.4-1.2,1.1-1.9,2.3c-1.4,2.3,0.8,2.4,1.4,2.1c0.2-0.1,4.1-3.4,4.1-3.4s-2.7,2.6-3.3,4.3c-1.3,3.8,2.9,1.9,2.9,1.9
		c0.1,2.3,2.4,0.7,2.4,0.7c1.5,0.2,5.1-5.7,5.4-6.3c-0.2,0.3-1.3,2.3-1.5,4.1c-0.2,2,1.4,1.1,2.2,0.3c0.7-0.7,2-2.5,2-2.5
		s-0.1,0.5,0.6,0.5c0.9,0,4.2-2.1,4.2-3c0.1-0.9,1.6-6.3,1.6-6.3c0.6-0.5,1.5-0.2,1.5-0.2c-0.1,0.9,1.3,0.4,1.3,0.4
		c0.7,0.5,1.1,0.1,1.1,0.1c0.8,0.7,3.4-2,3.5-1.1c0.1,0.9,2.4,0.9,2.4,0.9c1.6,0.2,3,0,3,0c0.3,3.2,2.5,4,3.8,4.3
		c1.3,0.4,2,0.9,2,0.9c-0.8,0.8,0.5,1.3,0.5,1.3c-0.2-0.5,0.8-0.5,1.9-0.7c1.1-0.1,2.3,1.1,2.9,1.5c0.6,0.4,2.9,0.5,2.9,0.5
		c0.3,0,0.4,0.2,0.4,0.3c0.8-2-1.6-2.3-1.6-2.3c2.4-0.8,3.9-0.7,4.7-0.6s0.8-0.8,0.8-0.8c0.5-0.2,0.9,0.3,0.9,0.3
		c0.1-0.8-0.6-1.1-1.3-1c-0.7,0.1-2.3-0.3-2.3-0.3c-0.5-1.8-3.7,0.7-5.2,0.8c-1.5,0.1-4.6-1.9-5.4-2.5c-0.8-0.6,0.1-3.4,0.6-4.2
		c0.5-0.8,0.3-2.5,0.3-2.5c1-0.8,3.4-0.5,3.4-0.5s0.2,0.3-1.2,0.7c-1.4,0.4-1.2,1.6-1.2,1.6c-0.5,1,0.7,1.6,0.7,1.6
		c-0.2-0.4,0.1-1.3,0.1-1.3c0.3,0,0.8-0.5,1.2-1.1s2.7-1.3,2.7-1.3c1.4-0.3,4.4,0.6,4.4,0.6c0.5,0.1,0.4,0.4,0.4,0.4s0.7,0,0.1-1.1
		c-0.6-1.1-2.8-1.1-2.8-1.1c1.3-0.4,3.6-0.7,4.2-0.6c0.6,0.1,0.6-0.8,0.6-0.8c0.4-0.2,1.1,0.3,1.1,0.3c-0.8-1.5-2.1-1-2.6-0.8
		c-0.5,0.2-4.2,0.5-4.2,0.5s0.4-0.7,0.7-1c0.2-0.3,0.4-0.9,0.4-0.9c0-0.3,0.6-0.3,0.6-0.3c-0.7-0.7-1.6,0-1.6,0
		c-0.7,0.2-1.7,2.5-2.5,2.6c-0.7,0.2-4.7,0-4.7,0c-0.4-0.2,0.4-3.3,0.5-3.8c0.1-0.5,4.5-4.4,6.1-5.4c1.6-1,5-3.4,5.9-4.5
		s2.6-0.8,3.4-0.6c0.8,0.2,2.5,2.9,2.5,2.9C576.1,140.5,575.4,137,575.4,137z"/>
</g>
<g>
	<path d="M430.4,156.3c0,0.1,0,0.1-0.1,0.2C430.4,156.5,430.4,156.4,430.4,156.3z"/>
	<path d="M479.7,111c-3.1,1.8-8.1,2.5-8.1,2.5c5.5-1.5,7.9-5.7,7.9-5.7c-5.9,4.5-12.7,3.8-12.7,3.8c11.7-2.5,12-9.7,12-9.7
		c-4,6-9.1,8.6-19.9,10.4c-8.3,1.4-17.4,1.9-26.5,2.1c-0.4-1.9-1.1-4.2-3.1-5.2c8.4-3.6,18.2-9.7,17.8-19.1
		c-0.2-5.2-1.4,1.7-4.9,6.5c0,0,1.6-7.4-0.2-9c-1.8-1.6-2.2,3.5-2.2,3.5s-2.4-2-2.9,3.5c0,0-1.2-1.2-4.4,4.8c0,0-1-1.7-2.2,0.4
		c-1,1.8-7.4,8.1-12.2,11c-3.3,1.3-6.1,2.9-8.2,3.7c-3.4,1.3-9.5,8.2-8.8,14.5c-1.8,1.8-3.6,3.8-5.5,6.2c-0.9,1.1-3.3,4.1-3.3,4.1
		c-6.6,2.5-6.1,5.4-6.1,5.4c-2.5,1.9-1.9,3.1-1.9,3.1c-4.2,3.6-4.6,5.3-3.7,6.3c0.6,0.6,1.8,0,2.6-0.4c-0.5,0.4-1.2,1.1-1.9,2.3
		c-1.4,2.3,0.8,2.4,1.4,2.1c0.2-0.1,4.1-3.4,4.1-3.4s-2.7,2.6-3.3,4.3c-1.3,3.8,2.9,1.9,2.9,1.9c0.1,2.3,2.4,0.7,2.4,0.7
		c1.5,0.2,5.1-5.7,5.4-6.3c-0.2,0.3-1.3,2.3-1.5,4.1c-0.2,2,1.4,1.1,2.2,0.3c0.7-0.7,2-2.5,2-2.5s-0.1,0.5,0.6,0.5
		c0.9,0,4.2-2.1,4.2-3c0.1-0.9,1.6-6.3,1.6-6.3c0.6-0.5,1.5-0.2,1.5-0.2c-0.1,0.9,1.3,0.4,1.3,0.4c0.7,0.5,1.1,0.1,1.1,0.1
		c0.4,0.4,1.5-0.4,2.4-0.9c0.4,0.1,0.8,0.1,1.2,0.1c0.5,0.7,2.3,0.6,2.3,0.6c0.9,0.1,1.7,0.1,2.3,0c0.3,0.1,0.5,0.2,0.8,0.2
		c0.4,3,2.5,3.7,3.8,4.1c1.3,0.4,2,0.9,2,0.9c-0.8,0.8,0.5,1.3,0.5,1.3c-0.2-0.5,0.8-0.5,1.9-0.7c1.1-0.1,2.3,1.1,2.9,1.5
		c0.6,0.4,2.9,0.5,2.9,0.5c0.3,0,0.4,0.2,0.4,0.3c0.8-2-1.6-2.3-1.6-2.3c2.4-0.8,3.9-0.7,4.7-0.6c0.8,0.1,0.8-0.8,0.8-0.8
		c0.5-0.2,0.9,0.3,0.9,0.3c0.1-0.8-0.6-1.1-1.3-1c-0.7,0.1-2.3-0.3-2.3-0.3c-0.5-1.8-3.7,0.7-5.2,0.8c-1.5,0.1-4.6-1.9-5.4-2.5
		c-0.4-0.3-0.4-1.1-0.2-1.9c0.6-0.2,0.9-0.5,0.9-0.5c2.4,0.5,3.2-1,3.2-1c2.4,0.1,4-1.6,4-1.6c1.9,0.2,3-0.4,3.6-1
		c0.1,0.1,0,0.2,0,0.2s0.5,0,0.3-0.6c0.1-0.2,0.2-0.3,0.2-0.3c2-0.1,2.8-1.1,2.8-1.1c3.4,1.1,5.8-2,5.8-2c5,1.7,5.9-2.8,5.9-2.8
		c5.1,0.8,5.8-3.4,5.8-3.4c5.2,0,4.9-4,4.9-4c8.3-1.4,4.7-5.2,4.7-5.2c10.9-3,5.9-5,5.9-5c8-2.5,5.9-4.7,5.9-4.7
		C477.7,113.5,479.7,111,479.7,111z"/>
</g>
<g>
	<path d="M1087.6,156.3c0,0.1,0,0.1-0.1,0.2C1087.5,156.5,1087.5,156.4,1087.6,156.3z"/>
	<path d="M1136.8,111c-3.1,1.8-8.1,2.5-8.1,2.5c5.5-1.5,7.9-5.7,7.9-5.7c-5.9,4.5-12.7,3.8-12.7,3.8c11.7-2.5,12-9.7,12-9.7
		c-4,6-9.1,8.6-19.9,10.4c-8.3,1.4-17.4,1.9-26.5,2.1c-0.4-1.9-1.1-4.2-3.1-5.2c8.4-3.6,18.2-9.7,17.8-19.1
		c-0.2-5.2-1.4,1.7-4.9,6.5c0,0,1.6-7.4-0.2-9c-1.8-1.6-2.2,3.5-2.2,3.5s-2.4-2-2.9,3.5c0,0-1.2-1.2-4.4,4.8c0,0-1-1.7-2.2,0.4
		c-1,1.8-7.4,8.1-12.2,11c-3.3,1.3-6.1,2.9-8.2,3.7c-3.4,1.3-9.5,8.2-8.8,14.5c-1.8,1.8-3.6,3.8-5.5,6.2c-0.9,1.1-3.3,4.1-3.3,4.1
		c-6.6,2.5-6.1,5.4-6.1,5.4c-2.5,1.9-1.9,3.1-1.9,3.1c-4.2,3.6-4.6,5.3-3.7,6.3c0.6,0.6,1.8,0,2.6-0.4c-0.5,0.4-1.2,1.1-1.9,2.3
		c-1.4,2.3,0.8,2.4,1.4,2.1c0.2-0.1,4.1-3.4,4.1-3.4s-2.7,2.6-3.3,4.3c-1.3,3.8,2.9,1.9,2.9,1.9c0.1,2.3,2.4,0.7,2.4,0.7
		c1.5,0.2,5.1-5.7,5.4-6.3c-0.2,0.3-1.3,2.3-1.5,4.1c-0.2,2,1.4,1.1,2.2,0.3c0.7-0.7,2-2.5,2-2.5s-0.1,0.5,0.6,0.5
		c0.9,0,4.2-2.1,4.2-3c0.1-0.9,1.6-6.3,1.6-6.3c0.6-0.5,1.5-0.2,1.5-0.2c-0.1,0.9,1.3,0.4,1.3,0.4c0.7,0.5,1.1,0.1,1.1,0.1
		c0.4,0.4,1.5-0.4,2.4-0.9c0.4,0.1,0.8,0.1,1.2,0.1c0.5,0.7,2.3,0.6,2.3,0.6c0.9,0.1,1.7,0.1,2.3,0c0.3,0.1,0.5,0.2,0.8,0.2
		c0.4,3,2.5,3.7,3.8,4.1c1.3,0.4,2,0.9,2,0.9c-0.8,0.8,0.5,1.3,0.5,1.3c-0.2-0.5,0.8-0.5,1.9-0.7c1.1-0.1,2.3,1.1,2.9,1.5
		c0.6,0.4,2.9,0.5,2.9,0.5c0.3,0,0.4,0.2,0.4,0.3c0.8-2-1.6-2.3-1.6-2.3c2.4-0.8,3.9-0.7,4.7-0.6c0.8,0.1,0.8-0.8,0.8-0.8
		c0.5-0.2,0.9,0.3,0.9,0.3c0.1-0.8-0.6-1.1-1.3-1c-0.7,0.1-2.3-0.3-2.3-0.3c-0.5-1.8-3.7,0.7-5.2,0.8c-1.5,0.1-4.6-1.9-5.4-2.5
		c-0.4-0.3-0.4-1.1-0.2-1.9c0.6-0.2,0.9-0.5,0.9-0.5c2.4,0.5,3.2-1,3.2-1c2.4,0.1,4-1.6,4-1.6c1.9,0.2,3-0.4,3.6-1
		c0.1,0.1,0,0.2,0,0.2s0.5,0,0.3-0.6c0.1-0.2,0.2-0.3,0.2-0.3c2-0.1,2.8-1.1,2.8-1.1c3.4,1.1,5.8-2,5.8-2c5,1.7,5.9-2.8,5.9-2.8
		c5.1,0.8,5.8-3.4,5.8-3.4c5.2,0,4.9-4,4.9-4c8.3-1.4,4.7-5.2,4.7-5.2c10.9-3,5.9-5,5.9-5c8-2.5,5.9-4.7,5.9-4.7
		C1134.8,113.5,1136.8,111,1136.8,111z"/>
</g>
<g>
	<path d="M678,149.1c0,0.1,0,0.1-0.1,0.2C678,149.3,678,149.2,678,149.1z"/>
	<path d="M688.3,117c0,0,1.1-3.4-2.1-5.9s-6.1-1-10.1-0.9c-0.3,0-0.8,0-1.4-0.1c0.5-0.9,1.1-2.4-0.4-3.2c-0.8-0.4-2.3-0.4-4.5,0.1
		c-0.5-2.5-1.8-7.5-4.5-9.5c-3.7-2.7-15.6-6.6-52.4,3.7c-7.9,2.2,1.8,3,5.7,2.3c0,0-15.4,4.9-6.4,5.8c0,0-0.3,2.9,4,2.6
		c0,0,0.1,1.8,4.4,1.3c0,0,1,2.4,5.1,1.3c0,0,1.2,1.8,6.6,1c0,0,3.6,2.8,7.7,2c0,0,2.6-0.1,7-0.9c-7.4,3.6-16,8.2-25.4,13.3
		c-4.3,2.4-0.5,2.7-0.5,2.7s-4,3.7,0.4,3.1s17.1-6.1,21.9-8.4c0,0,0.1,0,0.2,0.1c-0.1,0.2-0.3,0.3-0.4,0.5c-0.9,1.1-3.3,4.1-3.3,4.1
		c-6.6,2.5-6.1,5.4-6.1,5.4c-2.5,1.9-1.9,3.1-1.9,3.1c-4.2,3.6-4.6,5.3-3.7,6.3c0.6,0.6,1.8,0,2.6-0.4c-0.5,0.4-1.2,1.1-1.9,2.3
		c-1.4,2.3,0.8,2.4,1.4,2.1c0.2-0.1,4.1-3.4,4.1-3.4s-2.7,2.6-3.3,4.3c-1.3,3.8,2.9,1.9,2.9,1.9c0.1,2.3,2.4,0.7,2.4,0.7
		c1.5,0.2,5.1-5.7,5.4-6.3c-0.2,0.3-1.3,2.3-1.5,4.1c-0.2,2,1.4,1.1,2.2,0.3c0.7-0.7,2-2.5,2-2.5s-0.1,0.5,0.6,0.5
		c0.9,0,4.2-2.1,4.2-3c0.1-0.9,1.6-6.3,1.6-6.3c0.6-0.5,1.5-0.2,1.5-0.2c-0.1,0.9,1.3,0.4,1.3,0.4c0.7,0.5,1.1,0.1,1.1,0.1
		c0.8,0.7,3.4-2,3.5-1.1s2.4,0.9,2.4,0.9c1.6,0.2,3,0,3,0c0.3,3.2,2.5,4,3.8,4.3c1.3,0.4,2,0.9,2,0.9c-0.8,0.8,0.5,1.3,0.5,1.3
		c-0.2-0.5,0.8-0.5,1.9-0.7c1.1-0.1,2.3,1.1,2.9,1.5c0.6,0.4,2.9,0.5,2.9,0.5c0.3,0,0.4,0.2,0.4,0.3c0.8-2-1.6-2.3-1.6-2.3
		c2.4-0.8,3.9-0.7,4.7-0.6c0.8,0.1,0.8-0.8,0.8-0.8c0.5-0.2,0.9,0.3,0.9,0.3c0.1-0.8-0.6-1.1-1.3-1s-2.3-0.3-2.3-0.3
		c-0.5-1.8-3.7,0.7-5.2,0.8c-1.5,0.1-4.6-1.9-5.4-2.5c-0.8-0.6,0.1-3.4,0.6-4.2c0.5-0.8,0.3-2.5,0.3-2.5c1-0.8,3.4-0.5,3.4-0.5
		s0.2,0.3-1.2,0.7c-1.4,0.4-1.2,1.6-1.2,1.6c-0.5,1,0.7,1.6,0.7,1.6c-0.2-0.4,0.1-1.3,0.1-1.3c0.3,0,0.8-0.5,1.2-1.1
		c0.4-0.6,2.7-1.3,2.7-1.3c1.4-0.3,4.4,0.6,4.4,0.6c0.5,0.1,0.4,0.4,0.4,0.4s0.7,0,0.1-1.1s-2.8-1.1-2.8-1.1
		c1.3-0.4,3.6-0.7,4.2-0.6c0.6,0.1,0.6-0.8,0.6-0.8c0.4-0.2,1.1,0.3,1.1,0.3c-0.8-1.5-2.1-1-2.6-0.8c-0.5,0.2-4.2,0.5-4.2,0.5
		s0.4-0.7,0.7-1c0.2-0.3,0.4-0.9,0.4-0.9c0-0.3,0.6-0.3,0.6-0.3c-0.7-0.7-1.6,0-1.6,0c-0.7,0.2-1.7,2.5-2.5,2.6
		c-0.7,0.2-4.7,0-4.7,0c-0.4-0.2,0.4-3.3,0.5-3.8c0.1-0.5,4.5-4.4,6.1-5.4c1.6-1,5-3.4,5.9-4.5c0.9-1.2,2.6-0.8,3.4-0.6
		c0.8,0.2,2.5,2.9,2.5,2.9C688.9,120.6,688.3,117,688.3,117z"/>
</g>
<g>
	<path d="M897.1,149.1c0,0.1,0,0.1-0.1,0.2C897,149.3,897.1,149.2,897.1,149.1z"/>
	<path d="M907.3,117c0,0,1.1-3.4-2.1-5.9c-3.2-2.5-6.1-1-10.1-0.9c-0.3,0-0.8,0-1.4-0.1c0.5-0.9,1.1-2.4-0.4-3.2
		c-0.8-0.4-2.3-0.4-4.5,0.1c-0.5-2.5-1.8-7.5-4.5-9.5c-3.7-2.7-15.6-6.6-52.4,3.7c-7.9,2.2,1.8,3,5.7,2.3c0,0-15.4,4.9-6.4,5.8
		c0,0-0.3,2.9,4,2.6c0,0,0.1,1.8,4.4,1.3c0,0,1,2.4,5.1,1.3c0,0,1.2,1.8,6.6,1c0,0,3.6,2.8,7.7,2c0,0,2.6-0.1,7-0.9
		c-7.4,3.6-16,8.2-25.4,13.3c-4.3,2.4-0.5,2.7-0.5,2.7s-4,3.7,0.4,3.1c4.4-0.5,17.1-6.1,21.9-8.4c0,0,0.1,0,0.2,0.1
		c-0.1,0.2-0.3,0.3-0.4,0.5c-0.9,1.1-3.3,4.1-3.3,4.1c-6.6,2.5-6.1,5.4-6.1,5.4c-2.5,1.9-1.9,3.1-1.9,3.1c-4.2,3.6-4.6,5.3-3.7,6.3
		c0.6,0.6,1.8,0,2.6-0.4c-0.5,0.4-1.2,1.1-1.9,2.3c-1.4,2.3,0.8,2.4,1.4,2.1c0.2-0.1,4.1-3.4,4.1-3.4s-2.7,2.6-3.3,4.3
		c-1.3,3.8,2.9,1.9,2.9,1.9c0.1,2.3,2.4,0.7,2.4,0.7c1.5,0.2,5.1-5.7,5.4-6.3c-0.2,0.3-1.3,2.3-1.5,4.1c-0.2,2,1.4,1.1,2.2,0.3
		c0.7-0.7,2-2.5,2-2.5s-0.1,0.5,0.6,0.5c0.9,0,4.2-2.1,4.2-3c0.1-0.9,1.6-6.3,1.6-6.3c0.6-0.5,1.5-0.2,1.5-0.2
		c-0.1,0.9,1.3,0.4,1.3,0.4c0.7,0.5,1.1,0.1,1.1,0.1c0.8,0.7,3.4-2,3.5-1.1s2.4,0.9,2.4,0.9c1.6,0.2,3,0,3,0c0.3,3.2,2.5,4,3.8,4.3
		c1.3,0.4,2,0.9,2,0.9c-0.8,0.8,0.5,1.3,0.5,1.3c-0.2-0.5,0.8-0.5,1.9-0.7c1.1-0.1,2.3,1.1,2.9,1.5s2.9,0.5,2.9,0.5
		c0.3,0,0.4,0.2,0.4,0.3c0.8-2-1.6-2.3-1.6-2.3c2.4-0.8,3.9-0.7,4.7-0.6c0.8,0.1,0.8-0.8,0.8-0.8c0.5-0.2,0.9,0.3,0.9,0.3
		c0.1-0.8-0.6-1.1-1.3-1c-0.7,0.1-2.3-0.3-2.3-0.3c-0.5-1.8-3.7,0.7-5.2,0.8c-1.5,0.1-4.6-1.9-5.4-2.5c-0.8-0.6,0.1-3.4,0.6-4.2
		c0.5-0.8,0.3-2.5,0.3-2.5c1-0.8,3.4-0.5,3.4-0.5s0.2,0.3-1.2,0.7c-1.4,0.4-1.2,1.6-1.2,1.6c-0.5,1,0.7,1.6,0.7,1.6
		c-0.2-0.4,0.1-1.3,0.1-1.3c0.3,0,0.8-0.5,1.2-1.1c0.4-0.6,2.7-1.3,2.7-1.3c1.4-0.3,4.4,0.6,4.4,0.6c0.5,0.1,0.4,0.4,0.4,0.4
		s0.7,0,0.1-1.1c-0.6-1.1-2.8-1.1-2.8-1.1c1.3-0.4,3.6-0.7,4.2-0.6c0.6,0.1,0.6-0.8,0.6-0.8c0.4-0.2,1.1,0.3,1.1,0.3
		c-0.8-1.5-2.1-1-2.6-0.8c-0.5,0.2-4.2,0.5-4.2,0.5s0.4-0.7,0.7-1c0.2-0.3,0.4-0.9,0.4-0.9c0-0.3,0.6-0.3,0.6-0.3
		c-0.7-0.7-1.6,0-1.6,0c-0.7,0.2-1.7,2.5-2.5,2.6c-0.7,0.2-4.7,0-4.7,0c-0.4-0.2,0.4-3.3,0.5-3.8c0.1-0.5,4.5-4.4,6.1-5.4
		c1.6-1,5-3.4,5.9-4.5s2.6-0.8,3.4-0.6c0.8,0.2,2.5,2.9,2.5,2.9C908,120.6,907.3,117,907.3,117z"/>
</g>
<g>
	<path d="M783.8,141.6c0,0.1,0,0.1-0.1,0.2C783.7,141.8,783.8,141.7,783.8,141.6z"/>
	<path d="M794,109.5c0,0,1.1-3.4-2.1-5.9c-3.2-2.5-6.1-1-10.1-0.9c-1.1,0-3.9-0.6-7.8,0.1c-1.9-0.8-4.3-1.1-7-0.3
		c-4.8,1.3-12.7,8.2-20,14.7c-3.5,1.3-7.1,2.4-10.4,3.4c-9.2,2.6-11.8,1.9-13.7,4c-0.7,0.8,1.8-0.5,7-0.1c2.6,0.2,5.4,0.5,8.2,0.7
		c-2.2,1.9-4.1,3.4-5.5,4.3c-6.6,4-6.7,5.7,0.2,2c2-1.1,4.4-2.1,7.2-3.1c-0.6,1-0.5,1.7-0.5,1.7c-2.5,1.9-1.9,3.1-1.9,3.1
		c-4.2,3.6-4.6,5.3-3.7,6.3c0.6,0.6,1.8,0,2.6-0.4c-0.5,0.4-1.2,1.1-1.9,2.3c-1.4,2.3,0.8,2.4,1.4,2.1c0.2-0.1,4.1-3.4,4.1-3.4
		s-2.7,2.6-3.3,4.3c-1.3,3.8,2.9,1.9,2.9,1.9c0.1,2.3,2.4,0.7,2.4,0.7c1.5,0.2,5.1-5.7,5.4-6.3c-0.2,0.3-1.3,2.3-1.5,4.1
		c-0.2,2,1.4,1.1,2.2,0.3c0.7-0.7,2-2.5,2-2.5s-0.1,0.5,0.6,0.5c0.9,0,4.2-2.1,4.2-3c0.1-0.9,1.6-6.3,1.6-6.3
		c0.6-0.5,1.5-0.2,1.5-0.2c-0.1,0.9,1.3,0.4,1.3,0.4c0.7,0.5,1.1,0.1,1.1,0.1c0.8,0.7,3.4-2,3.5-1.1c0.1,0.9,2.4,0.9,2.4,0.9
		c1.6,0.2,3,0,3,0c0.3,3.2,2.5,4,3.8,4.3c1.3,0.4,2,0.9,2,0.9c-0.8,0.8,0.5,1.3,0.5,1.3c-0.2-0.5,0.8-0.5,1.9-0.7
		c1.1-0.1,2.3,1.1,2.9,1.5c0.6,0.4,2.9,0.5,2.9,0.5c0.3,0,0.4,0.2,0.4,0.3c0.8-2-1.6-2.3-1.6-2.3c2.4-0.8,3.9-0.7,4.7-0.6
		c0.8,0.1,0.8-0.8,0.8-0.8c0.5-0.2,0.9,0.3,0.9,0.3c0.1-0.8-0.6-1.1-1.3-1c-0.7,0.1-2.3-0.3-2.3-0.3c-0.5-1.8-3.7,0.7-5.2,0.8
		c-1.5,0.1-4.6-1.9-5.4-2.5c-0.8-0.6,0.1-3.4,0.6-4.2c0.5-0.8,0.3-2.5,0.3-2.5c1-0.8,3.4-0.5,3.4-0.5s0.2,0.3-1.2,0.7
		c-1.4,0.4-1.2,1.6-1.2,1.6c-0.5,1,0.7,1.6,0.7,1.6c-0.2-0.4,0.1-1.3,0.1-1.3c0.3,0,0.8-0.5,1.2-1.1c0.4-0.6,2.7-1.3,2.7-1.3
		c1.4-0.3,4.4,0.6,4.4,0.6c0.5,0.1,0.4,0.4,0.4,0.4s0.7,0,0.1-1.1c-0.6-1.1-2.8-1.1-2.8-1.1c1.3-0.4,3.6-0.7,4.2-0.6
		c0.6,0.1,0.6-0.8,0.6-0.8c0.4-0.2,1.1,0.3,1.1,0.3c-0.8-1.5-2.1-1-2.6-0.8c-0.5,0.2-4.2,0.5-4.2,0.5s0.4-0.7,0.7-1
		c0.2-0.3,0.4-0.9,0.4-0.9c0-0.3,0.6-0.3,0.6-0.3c-0.1-0.1-0.2-0.2-0.3-0.2c1.6-1,2.9-2.4,3.5-4.1c0.8-2.2,0.6-4.2-0.1-6.1
		c0.3-0.2,0.5-0.5,0.6-0.7c0.9-1.2,2.6-0.8,3.4-0.6c0.8,0.2,2.5,2.9,2.5,2.9C794.7,113.1,794,109.5,794,109.5z M780,126.2
		c-0.7,0.2-4.7,0-4.7,0c0,0,0,0-0.1-0.1c2.3-0.4,4.5-1,6.3-1.8C781,125.2,780.4,126.1,780,126.2z"/>
</g>
</svg>
