<svg id="圖層_1" data-name="圖層 1" xmlns="http://www.w3.org/2000/svg" viewBox="0 0 1506.3 251.4"><title>pigeon</title><path d="M99.3,131.4s.7,3.6-.4,5.3c0,0-1.7-2.7-2.5-2.9s-2.5-.6-3.4.6-4.3,3.5-5.9,4.5-6,4.9-6.1,5.4-.9,3.6-.5,3.8c0,0,4,.1,4.7,0s1.7-2.4,2.5-2.6a1.25,1.25,0,0,1,1.6,0s-.6,0-.6.3a2,2,0,0,1-.4.9c-.2.3-.7,1-.7,1s3.7-.3,4.2-.5a1.85,1.85,0,0,1,2.6.8s-.7-.5-1.1-.3c0,0,0,.8-.6.8a15,15,0,0,0-4.2.6s2.3,0,2.8,1.1-.1,1.1-.1,1.1.1-.2-.4-.4a16.16,16.16,0,0,0-4.4-.6s-2.3.7-2.7,1.3a2.89,2.89,0,0,1-1.2,1.1s-.4.8-.1,1.3c0,0-1.1-.6-.7-1.6a1.46,1.46,0,0,1,1.2-1.6c1.4-.4,1.2-.7,1.2-.7s-2.5-.2-3.4.5a5,5,0,0,1-.3,2.5c-.5.8-1.4,3.6-.6,4.2s3.9,2.6,5.4,2.5,4.7-2.7,5.2-.8a9,9,0,0,0,2.3.3c.7-.1,1.4.2,1.3,1a.85.85,0,0,0-.9-.3.78.78,0,0,1-.8.8,10.21,10.21,0,0,0-4.7.6s2.5.4,1.6,2.5c0,0,.3-.4-.3-.4A9.2,9.2,0,0,1,86,163c-.6-.4-1.8-1.7-2.9-1.5s-2.1.2-1.9.7c0,0-1.3-.5-.5-1.3a5,5,0,0,0-2-.9,4.49,4.49,0,0,1-3.8-4.3,12.65,12.65,0,0,1-3,0s-2.3,0-2.4-.9-2.7,1.8-3.5,1.1a.86.86,0,0,1-1.1-.1s-1.4.5-1.3-.4a1.72,1.72,0,0,0-1.5.2s-1.5,5.4-1.6,6.3-3.3,3-4.2,3c-.7,0-.6-.5-.6-.5a19,19,0,0,1-2,2.5c-.8.8-2.4,1.7-2.2-.3a12.33,12.33,0,0,1,1.5-4.2s-3.9,6.6-5.4,6.3c0,0-2.3,1.7-2.4-.7,0,0-4.2,1.9-2.9-1.9.6-1.7,3.3-4.3,3.3-4.3s-3.9,3.3-4.1,3.4c-.6.3-2.8.2-1.4-2.1s2.6-2.7,2.6-2.7-2.5,1.8-3.3.9-.5-2.7,3.7-6.3c0,0-.6-1.2,1.9-3.1,0,0-.5-3,6.1-5.4,0,0,2.1-3.4,3.3-4.1,0,0-3,.7-2.8-1.3,0,0-2.6.6-2.5-2,0,0-3.2.5-2.6-2.4,0,0-3.9-.5-1.6-3.8,0,0-2.4.1-2.2-1.6a2.66,2.66,0,0,1-1-3,2.74,2.74,0,0,1-.4-2.8,2.05,2.05,0,0,1-.1-2.2s-3.6-.2-3.7-3.6a4.08,4.08,0,0,1-3.2-4.7s-4.4-2-3.1-5.4c0,0-3.5-1.7-3-5.4,0,0-4.4-2.5-2.5-5.1,0,0-5.6-3.9-2-6.4,0,0-4.2-3.7-3.1-5.5,0,0-3.3-2.8-1.3-4.5,0,0-1.8-3-.3-4.1,1.2-.8,2.4,3.3,8.2,5.7,0,0-1.3-1.2-1-2.1.1-.5.9,0,.9,0s-5.2-6.1-4.5-9.3c.6-2.7,1.5,2.5,7.5,8.1,0,0-2.1-5.7-1.2-7.4S30,76.1,32.5,80c3.2,5,7.8,7.6,8.7,8.9,0,0-4-6.1-3.7-11.4.3-5.1,3-5,3.2-4.7s-1.1,2.8-.4,6.5S44.9,92,52.2,98.2a14,14,0,0,1,8.9,5.5c3.6,4.9,10.5,15,13.9,18.1,0,0,4.3,3.2,12.1,2.9,4-.1,6.9-1.6,10.1.9A5.2,5.2,0,0,1,99.3,131.4Z"/><path d="M1487.2,131.4s.7,3.6-.4,5.3c0,0-1.7-2.7-2.5-2.9s-2.5-.6-3.4.6-4.3,3.5-5.9,4.5-6,4.9-6.1,5.4-.9,3.6-.5,3.8c0,0,4,.1,4.7,0s1.7-2.4,2.5-2.6a1.25,1.25,0,0,1,1.6,0s-.6,0-.6.3a2,2,0,0,1-.4.9c-.2.3-.7,1-.7,1s3.7-.3,4.2-.5a1.85,1.85,0,0,1,2.6.8s-.7-.5-1.1-.3c0,0,0,.8-.6.8a15,15,0,0,0-4.2.6s2.3,0,2.8,1.1-.1,1.1-.1,1.1.1-.2-.4-.4a16.16,16.16,0,0,0-4.4-.6s-2.3.7-2.7,1.3a2.89,2.89,0,0,1-1.2,1.1s-.4.8-.1,1.3c0,0-1.1-.6-.7-1.6a1.46,1.46,0,0,1,1.2-1.6c1.4-.4,1.2-.7,1.2-.7s-2.5-.2-3.4.5a5,5,0,0,1-.3,2.5c-.5.8-1.4,3.6-.6,4.2s3.9,2.6,5.4,2.5,4.7-2.7,5.2-.8a9,9,0,0,0,2.3.3c.7-.1,1.4.2,1.3,1a.85.85,0,0,0-.9-.3.78.78,0,0,1-.8.8,11.89,11.89,0,0,0-4.7.6s2.5.4,1.6,2.5c0,0,.3-.4-.3-.4a9.2,9.2,0,0,1-2.9-.5c-.6-.4-1.8-1.7-2.9-1.5s-2.1.2-1.9.7c0,0-1.3-.5-.5-1.3a5,5,0,0,0-2-.9c-1.3-.4-3.5-1.1-3.8-4.3a12.65,12.65,0,0,1-3,0s-2.3,0-2.4-.9-2.7,1.8-3.5,1.1a.86.86,0,0,1-1.1-.1s-1.4.5-1.3-.4a1.72,1.72,0,0,0-1.5.2s-1.5,5.4-1.6,6.3-3.3,3-4.2,3c-.7,0-.6-.5-.6-.5a19,19,0,0,1-2,2.5c-.8.8-2.4,1.7-2.2-.3a12.33,12.33,0,0,1,1.5-4.2s-3.9,6.6-5.4,6.3c0,0-2.3,1.7-2.4-.7,0,0-4.2,1.9-2.9-1.9.6-1.7,3.3-4.3,3.3-4.3s-3.9,3.3-4.1,3.4c-.6.3-2.8.2-1.4-2.1s2.6-2.7,2.6-2.7-2.5,1.8-3.3.9-.5-2.7,3.7-6.3c0,0-.6-1.2,1.9-3.1,0,0-.5-3,6.1-5.4,0,0,2.1-3.4,3.3-4.1,0,0-3,.7-2.8-1.3,0,0-2.6.6-2.5-2,0,0-3.2.5-2.6-2.4,0,0-3.9-.5-1.6-3.8,0,0-2.4.1-2.2-1.6a2.66,2.66,0,0,1-1-3,2.74,2.74,0,0,1-.4-2.8,2.05,2.05,0,0,1-.1-2.2s-3.6-.2-3.7-3.6a4.08,4.08,0,0,1-3.2-4.7s-4.4-2-3.1-5.4c0,0-3.5-1.7-3-5.4,0,0-4.4-2.5-2.5-5.1,0,0-5.6-3.9-2-6.4,0,0-4.2-3.7-3.1-5.5,0,0-3.3-2.8-1.3-4.5,0,0-1.8-3-.3-4.1,1.2-.8,2.4,3.3,8.2,5.7,0,0-1.3-1.2-1-2.1.1-.5.9,0,.9,0s-5.2-6.1-4.5-9.3c.6-2.7,1.5,2.5,7.5,8.1,0,0-2.1-5.7-1.2-7.4s1.1,2.5,3.6,6.4c3.2,5,7.8,7.6,8.7,8.9,0,0-4-6.1-3.7-11.4.3-5.1,3-5,3.2-4.7s-1.1,2.8-.4,6.5,4.6,12.7,11.9,18.9a14,14,0,0,1,8.9,5.5c3.6,4.9,10.5,15,13.9,18.1,0,0,4.3,3.2,12.1,2.9,4-.1,6.9-1.6,10.1.9A5.2,5.2,0,0,1,1487.2,131.4Z"/><path d="M223.48,166c0,.1,0,.1-.1.2C223.48,166.2,223.48,166.1,223.48,166Z"/><path d="M233.78,134a5.55,5.55,0,0,0-2.1-5.9c-3.2-2.5-6.1-1-10.1-.9a29.12,29.12,0,0,0-7.9.1,10.23,10.23,0,0,1,1.9-5.7c3.1-4,8.6-11.5,8.8-18.3s0-17.4,1-19.8-3.4-3.7-4.9.5-2.6,10.9-1.3,14.7c0,0-3.9-8.7-3.1-16.6,0,0-4-3.3-5,3.8a48.17,48.17,0,0,0,.4,11,35.58,35.58,0,0,1-3.8-9.8s-4.7-.9-3.7,7.6c0,0-5.1-3.8-4.8,7.2a3.32,3.32,0,0,0-1.8.4,9.63,9.63,0,0,0-2.4-2.5,36.57,36.57,0,0,1-9.4-8.5c-3-4.2-10.3-13.7-13.4-18.2s-3.5,2.7,3.9,10.7a32.1,32.1,0,0,1-7.8-9c-2.1-3.6-4.1-2.8-3.2.4a16.51,16.51,0,0,0,5,7.8,87.7,87.7,0,0,1-7.5-5.3s-1.8,3.2,2.2,5.8c0,0-3.1-1.6-3.2-.6s-.6,3,6,7.8c0,0-3.5-1.7-4.5-1.7s-3,1.8,1,5.2c0,0-2.9,1.5,1,4.8,0,0-2.1,2.1,1.1,4.6a4.69,4.69,0,0,0,1.9,5.1s-1.5,2.7,1.9,4.7a3.76,3.76,0,0,0,2.5,4,3.39,3.39,0,0,0,.7,4s-1.1,1.5.8,3.3c0,0,.1,3,1.7,3.7,0,0,.4,1.5,1.4,1.9,0,0,.3,2.1,1.5,2.7,0,0,.1,2.6,2.2,2.5,0,0,0,1.6,2,1.6a1.52,1.52,0,0,0,1.9,1.1s-.4,1.5,2.8,1.3a3.54,3.54,0,0,0-.3,4.2s-1.3,2.1-.7,3.6c-.7.9-1.3,1.6-1.3,1.6-6.6,2.5-6.1,5.4-6.1,5.4-2.5,1.9-1.9,3.1-1.9,3.1-4.2,3.6-4.6,5.3-3.7,6.3.6.6,1.8,0,2.6-.4a8.13,8.13,0,0,0-1.9,2.3c-1.4,2.3.8,2.4,1.4,2.1.2-.1,4.1-3.4,4.1-3.4s-2.7,2.6-3.3,4.3c-1.3,3.8,2.9,1.9,2.9,1.9.1,2.3,2.4.7,2.4.7,1.5.2,5.1-5.7,5.4-6.3a11.71,11.71,0,0,0-1.5,4.1c-.2,2,1.4,1.1,2.2.3a29.62,29.62,0,0,0,2-2.5s-.1.5.6.5c.9,0,4.2-2.1,4.2-3s1.6-6.3,1.6-6.3a1.73,1.73,0,0,1,1.5-.2c-.1.9,1.3.4,1.3.4.7.5,1.1.1,1.1.1.8.7,3.4-2,3.5-1.1s2.4.9,2.4.9a12.65,12.65,0,0,0,3,0,4.49,4.49,0,0,0,3.8,4.3,7.53,7.53,0,0,1,2,.9c-.8.8.5,1.3.5,1.3-.2-.5.8-.5,1.9-.7s2.3,1.1,2.9,1.5a9.66,9.66,0,0,0,2.9.5c.3,0,.4.2.4.3.8-2-1.6-2.3-1.6-2.3a10.21,10.21,0,0,1,4.7-.6c.8.1.8-.8.8-.8a.85.85,0,0,1,.9.3c.1-.8-.6-1.1-1.3-1a9,9,0,0,1-2.3-.3c-.5-1.8-3.7.7-5.2.8s-4.6-1.9-5.4-2.5.1-3.4.6-4.2a5,5,0,0,0,.3-2.5c1-.8,3.4-.5,3.4-.5s.2.3-1.2.7a1.46,1.46,0,0,0-1.2,1.6c-.5,1,.7,1.6.7,1.6-.2-.4.1-1.3.1-1.3.3,0,.8-.5,1.2-1.1s2.7-1.3,2.7-1.3c1.4-.3,4.4.6,4.4.6.5.1.4.4.4.4s.7,0,.1-1.1-2.8-1.1-2.8-1.1a15,15,0,0,1,4.2-.6c.6.1.6-.8.6-.8.4-.2,1.1.3,1.1.3a1.84,1.84,0,0,0-2.6-.8c-.5.2-4.2.5-4.2.5a6.31,6.31,0,0,1,.7-1,4.93,4.93,0,0,0,.4-.9c0-.3.6-.3.6-.3a1.25,1.25,0,0,0-1.6,0c-.7.2-1.7,2.5-2.5,2.6a36.4,36.4,0,0,1-4.7,0c-.4-.2.4-3.3.5-3.8s4.5-4.4,6.1-5.4a36.42,36.42,0,0,0,5.9-4.5c.9-1.1,2.6-.8,3.4-.6s2.5,2.9,2.5,2.9C234.38,137.5,233.78,134,233.78,134Z"/><path d="M1333.9,166c0,.1,0,.1-.1.2A.35.35,0,0,0,1333.9,166Z"/><path d="M1344.1,134a5.55,5.55,0,0,0-2.1-5.9c-3.2-2.5-6.1-1-10.1-.9a29.12,29.12,0,0,0-7.9.1,10.23,10.23,0,0,1,1.9-5.7c3.1-4,8.6-11.5,8.8-18.3s0-17.4,1-19.8-3.4-3.7-4.9.5-2.6,10.9-1.3,14.7c0,0-3.9-8.7-3.1-16.6,0,0-4-3.3-5,3.8a48.17,48.17,0,0,0,.4,11,35.58,35.58,0,0,1-3.8-9.8s-4.7-.9-3.7,7.6c0,0-5.1-3.8-4.8,7.2a3.32,3.32,0,0,0-1.8.4,9.63,9.63,0,0,0-2.4-2.5,36.57,36.57,0,0,1-9.4-8.5c-3-4.2-10.3-13.7-13.4-18.2s-3.5,2.7,3.9,10.7a32.1,32.1,0,0,1-7.8-9c-2.1-3.6-4.1-2.8-3.2.4a16.51,16.51,0,0,0,5,7.8,87.7,87.7,0,0,1-7.5-5.3s-1.8,3.2,2.2,5.8c0,0-3.1-1.6-3.2-.6s-.6,3,6,7.8c0,0-3.5-1.7-4.5-1.7s-3,1.8,1,5.2c0,0-2.9,1.5,1,4.8,0,0-2.1,2.1,1.1,4.6a4.69,4.69,0,0,0,1.9,5.1s-1.5,2.7,1.9,4.7a3.76,3.76,0,0,0,2.5,4,3.39,3.39,0,0,0,.7,4s-1.1,1.5.8,3.3c0,0,.1,3,1.7,3.7,0,0,.4,1.5,1.4,1.9,0,0,.3,2.1,1.5,2.7,0,0,.1,2.6,2.2,2.5,0,0,0,1.6,2,1.6a1.52,1.52,0,0,0,1.9,1.1s-.4,1.5,2.8,1.3a3.54,3.54,0,0,0-.3,4.2s-1.3,2.1-.7,3.6c-.7.9-1.3,1.6-1.3,1.6-6.6,2.5-6.1,5.4-6.1,5.4-2.5,1.9-1.9,3.1-1.9,3.1-4.2,3.6-4.6,5.3-3.7,6.3.6.6,1.8,0,2.6-.4a8.13,8.13,0,0,0-1.9,2.3c-1.4,2.3.8,2.4,1.4,2.1.2-.1,4.1-3.4,4.1-3.4s-2.7,2.6-3.3,4.3c-1.3,3.8,2.9,1.9,2.9,1.9.1,2.3,2.4.7,2.4.7,1.5.2,5.1-5.7,5.4-6.3a11.71,11.71,0,0,0-1.5,4.1c-.2,2,1.4,1.1,2.2.3a29.62,29.62,0,0,0,2-2.5s-.1.5.6.5c.9,0,4.2-2.1,4.2-3s1.6-6.3,1.6-6.3a1.73,1.73,0,0,1,1.5-.2c-.1.9,1.3.4,1.3.4.7.5,1.1.1,1.1.1.8.7,3.4-2,3.5-1.1s2.4.9,2.4.9a12.65,12.65,0,0,0,3,0,4.49,4.49,0,0,0,3.8,4.3,7.53,7.53,0,0,1,2,.9c-.8.8.5,1.3.5,1.3-.2-.5.8-.5,1.9-.7s2.3,1.1,2.9,1.5a9.66,9.66,0,0,0,2.9.5c.3,0,.4.2.4.3.8-2-1.6-2.3-1.6-2.3a10.21,10.21,0,0,1,4.7-.6c.8.1.8-.8.8-.8a.85.85,0,0,1,.9.3c.1-.8-.6-1.1-1.3-1a9,9,0,0,1-2.3-.3c-.5-1.8-3.7.7-5.2.8s-4.6-1.9-5.4-2.5.1-3.4.6-4.2a5,5,0,0,0,.3-2.5c1-.8,3.4-.5,3.4-.5s.2.3-1.2.7a1.46,1.46,0,0,0-1.2,1.6c-.5,1,.7,1.6.7,1.6-.2-.4.1-1.3.1-1.3.3,0,.8-.5,1.2-1.1s2.7-1.3,2.7-1.3c1.4-.3,4.4.6,4.4.6.5.1.4.4.4.4s.7,0,.1-1.1-2.8-1.1-2.8-1.1a15,15,0,0,1,4.2-.6c.6.1.6-.8.6-.8.4-.2,1.1.3,1.1.3a1.84,1.84,0,0,0-2.6-.8c-.5.2-4.2.5-4.2.5a6.31,6.31,0,0,1,.7-1,2,2,0,0,0,.4-.9c0-.3.6-.3.6-.3a1.25,1.25,0,0,0-1.6,0c-.7.2-1.7,2.5-2.5,2.6a36.4,36.4,0,0,1-4.7,0c-.4-.2.4-3.3.5-3.8s4.5-4.4,6.1-5.4a36.42,36.42,0,0,0,5.9-4.5c.9-1.1,2.6-.8,3.4-.6s2.5,2.9,2.5,2.9C1344.8,137.5,1344.1,134,1344.1,134Z"/><path d="M1056.22,169c0,.1,0,.1-.1.2C1056.22,169.2,1056.22,169.1,1056.22,169Z"/><path d="M1066.52,137a5.55,5.55,0,0,0-2.1-5.9c-3.2-2.5-6.1-1-10.1-.9a29.12,29.12,0,0,0-7.9.1,10.23,10.23,0,0,1,1.9-5.7c3.1-4,8.6-11.5,8.8-18.3s0-17.4,1-19.8-3.4-3.7-4.9.5-2.6,10.9-1.3,14.7c0,0-3.9-8.7-3.1-16.6,0,0-4-3.3-5,3.8a48.17,48.17,0,0,0,.4,11,35.58,35.58,0,0,1-3.8-9.8s-4.7-.9-3.7,7.6c0,0-5.1-3.8-4.8,7.2a3.32,3.32,0,0,0-1.8.4,9.63,9.63,0,0,0-2.4-2.5,36.57,36.57,0,0,1-9.4-8.5c-3-4.2-10.3-13.7-13.4-18.2s-3.5,2.7,3.9,10.7a32.1,32.1,0,0,1-7.8-9c-2.1-3.6-4.1-2.8-3.2.4a16.51,16.51,0,0,0,5,7.8,87.7,87.7,0,0,1-7.5-5.3s-1.8,3.2,2.2,5.8c0,0-3.1-1.6-3.2-.6s-.6,3,6,7.8c0,0-3.5-1.7-4.5-1.7s-3,1.8,1,5.2c0,0-2.9,1.5,1,4.8,0,0-2.1,2.1,1.1,4.6a4.69,4.69,0,0,0,1.9,5.1s-1.5,2.7,1.9,4.7a3.76,3.76,0,0,0,2.5,4,3.39,3.39,0,0,0,.7,4s-1.1,1.5.8,3.3c0,0,.1,3,1.7,3.7,0,0,.4,1.5,1.4,1.9,0,0,.3,2.1,1.5,2.7,0,0,.1,2.6,2.2,2.5,0,0,0,1.6,2,1.6a1.52,1.52,0,0,0,1.9,1.1s-.4,1.5,2.8,1.3a3.54,3.54,0,0,0-.3,4.2s-1.3,2.1-.7,3.6c-.7.9-1.3,1.6-1.3,1.6-6.6,2.5-6.1,5.4-6.1,5.4-2.5,1.9-1.9,3.1-1.9,3.1-4.2,3.6-4.6,5.3-3.7,6.3.6.6,1.8,0,2.6-.4a8.13,8.13,0,0,0-1.9,2.3c-1.4,2.3.8,2.4,1.4,2.1.2-.1,4.1-3.4,4.1-3.4s-2.7,2.6-3.3,4.3c-1.3,3.8,2.9,1.9,2.9,1.9.1,2.3,2.4.7,2.4.7,1.5.2,5.1-5.7,5.4-6.3a11.71,11.71,0,0,0-1.5,4.1c-.2,2,1.4,1.1,2.2.3a29.62,29.62,0,0,0,2-2.5s-.1.5.6.5c.9,0,4.2-2.1,4.2-3s1.6-6.3,1.6-6.3a1.73,1.73,0,0,1,1.5-.2c-.1.9,1.3.4,1.3.4.7.5,1.1.1,1.1.1.8.7,3.4-2,3.5-1.1s2.4.9,2.4.9a12.65,12.65,0,0,0,3,0,4.49,4.49,0,0,0,3.8,4.3,7.53,7.53,0,0,1,2,.9c-.8.8.5,1.3.5,1.3-.2-.5.8-.5,1.9-.7s2.3,1.1,2.9,1.5a9.66,9.66,0,0,0,2.9.5c.3,0,.4.2.4.3.8-2-1.6-2.3-1.6-2.3a10.21,10.21,0,0,1,4.7-.6c.8.1.8-.8.8-.8a.85.85,0,0,1,.9.3c.1-.8-.6-1.1-1.3-1a9,9,0,0,1-2.3-.3c-.5-1.8-3.7.7-5.2.8s-4.6-1.9-5.4-2.5.1-3.4.6-4.2a5,5,0,0,0,.3-2.5c1-.8,3.4-.5,3.4-.5s.2.3-1.2.7a1.46,1.46,0,0,0-1.2,1.6c-.5,1,.7,1.6.7,1.6-.2-.4.1-1.3.1-1.3.3,0,.8-.5,1.2-1.1s2.7-1.3,2.7-1.3c1.4-.3,4.4.6,4.4.6.5.1.4.4.4.4s.7,0,.1-1.1-2.8-1.1-2.8-1.1a15,15,0,0,1,4.2-.6c.6.1.6-.8.6-.8.4-.2,1.1.3,1.1.3a1.84,1.84,0,0,0-2.6-.8c-.5.2-4.2.5-4.2.5a6.31,6.31,0,0,1,.7-1,4.93,4.93,0,0,0,.4-.9c0-.3.6-.3.6-.3a1.25,1.25,0,0,0-1.6,0c-.7.2-1.7,2.5-2.5,2.6a36.4,36.4,0,0,1-4.7,0c-.4-.2.4-3.3.5-3.8s4.5-4.4,6.1-5.4a36.42,36.42,0,0,0,5.9-4.5c.9-1.1,2.6-.8,3.4-.6s2.5,2.9,2.5,2.9C1067.12,140.5,1066.52,137,1066.52,137Z"/><path d="M501.16,169c0,.1,0,.1-.1.2A.35.35,0,0,0,501.16,169Z"/><path d="M511.36,137a5.55,5.55,0,0,0-2.1-5.9c-3.2-2.5-6.1-1-10.1-.9a29.12,29.12,0,0,0-7.9.1,10.23,10.23,0,0,1,1.9-5.7c3.1-4,8.6-11.5,8.8-18.3s0-17.4,1-19.8-3.4-3.7-4.9.5-2.6,10.9-1.3,14.7c0,0-3.9-8.7-3.1-16.6,0,0-4-3.3-5,3.8a48.17,48.17,0,0,0,.4,11,35.58,35.58,0,0,1-3.8-9.8s-4.7-.9-3.7,7.6c0,0-5.1-3.8-4.8,7.2a3.32,3.32,0,0,0-1.8.4,9.63,9.63,0,0,0-2.4-2.5,36.57,36.57,0,0,1-9.4-8.5c-3-4.2-10.3-13.7-13.4-18.2s-3.5,2.7,3.9,10.7a32.1,32.1,0,0,1-7.8-9c-2.1-3.6-4.1-2.8-3.2.4a16.51,16.51,0,0,0,5,7.8,87.7,87.7,0,0,1-7.5-5.3s-1.8,3.2,2.2,5.8c0,0-3.1-1.6-3.2-.6s-.6,3,6,7.8c0,0-3.5-1.7-4.5-1.7s-3,1.8,1,5.2c0,0-2.9,1.5,1,4.8,0,0-2.1,2.1,1.1,4.6a4.69,4.69,0,0,0,1.9,5.1s-1.5,2.7,1.9,4.7a3.76,3.76,0,0,0,2.5,4,3.39,3.39,0,0,0,.7,4s-1.1,1.5.8,3.3c0,0,.1,3,1.7,3.7,0,0,.4,1.5,1.4,1.9,0,0,.3,2.1,1.5,2.7,0,0,.1,2.6,2.2,2.5,0,0,0,1.6,2,1.6a1.52,1.52,0,0,0,1.9,1.1s-.4,1.5,2.8,1.3a3.54,3.54,0,0,0-.3,4.2s-1.3,2.1-.7,3.6c-.7.9-1.3,1.6-1.3,1.6-6.6,2.5-6.1,5.4-6.1,5.4-2.5,1.9-1.9,3.1-1.9,3.1-4.2,3.6-4.6,5.3-3.7,6.3.6.6,1.8,0,2.6-.4a8.13,8.13,0,0,0-1.9,2.3c-1.4,2.3.8,2.4,1.4,2.1.2-.1,4.1-3.4,4.1-3.4s-2.7,2.6-3.3,4.3c-1.3,3.8,2.9,1.9,2.9,1.9.1,2.3,2.4.7,2.4.7,1.5.2,5.1-5.7,5.4-6.3a11.71,11.71,0,0,0-1.5,4.1c-.2,2,1.4,1.1,2.2.3a29.62,29.62,0,0,0,2-2.5s-.1.5.6.5c.9,0,4.2-2.1,4.2-3s1.6-6.3,1.6-6.3a1.73,1.73,0,0,1,1.5-.2c-.1.9,1.3.4,1.3.4.7.5,1.1.1,1.1.1.8.7,3.4-2,3.5-1.1s2.4.9,2.4.9a12.65,12.65,0,0,0,3,0,4.49,4.49,0,0,0,3.8,4.3,7.53,7.53,0,0,1,2,.9c-.8.8.5,1.3.5,1.3-.2-.5.8-.5,1.9-.7s2.3,1.1,2.9,1.5a9.66,9.66,0,0,0,2.9.5c.3,0,.4.2.4.3.8-2-1.6-2.3-1.6-2.3a10.21,10.21,0,0,1,4.7-.6c.8.1.8-.8.8-.8a.85.85,0,0,1,.9.3c.1-.8-.6-1.1-1.3-1a9,9,0,0,1-2.3-.3c-.5-1.8-3.7.7-5.2.8s-4.6-1.9-5.4-2.5.1-3.4.6-4.2a5,5,0,0,0,.3-2.5c1-.8,3.4-.5,3.4-.5s.2.3-1.2.7a1.46,1.46,0,0,0-1.2,1.6c-.5,1,.7,1.6.7,1.6-.2-.4.1-1.3.1-1.3.3,0,.8-.5,1.2-1.1s2.7-1.3,2.7-1.3c1.4-.3,4.4.6,4.4.6.5.1.4.4.4.4s.7,0,.1-1.1-2.8-1.1-2.8-1.1a15,15,0,0,1,4.2-.6c.6.1.6-.8.6-.8.4-.2,1.1.3,1.1.3a1.84,1.84,0,0,0-2.6-.8c-.5.2-4.2.5-4.2.5a6.31,6.31,0,0,1,.7-1,4.93,4.93,0,0,0,.4-.9c0-.3.6-.3.6-.3a1.25,1.25,0,0,0-1.6,0c-.7.2-1.7,2.5-2.5,2.6a36.4,36.4,0,0,1-4.7,0c-.4-.2.4-3.3.5-3.8s4.5-4.4,6.1-5.4a36.42,36.42,0,0,0,5.9-4.5c.9-1.1,2.6-.8,3.4-.6s2.5,2.9,2.5,2.9C512.06,140.5,511.36,137,511.36,137Z"/><path d="M337,164.3c0,.1,0,.1-.1.2C337,164.5,337,164.4,337,164.3Z"/><path d="M386.29,119c-3.1,1.8-8.1,2.5-8.1,2.5a13.66,13.66,0,0,0,7.9-5.7,19.57,19.57,0,0,1-12.7,3.8c11.7-2.5,12-9.7,12-9.7-4,6-9.1,8.6-19.9,10.4a187.19,187.19,0,0,1-26.5,2.1c-.4-1.9-1.1-4.2-3.1-5.2,8.4-3.6,18.2-9.7,17.8-19.1-.2-5.2-1.4,1.7-4.9,6.5,0,0,1.6-7.4-.2-9s-2.2,3.5-2.2,3.5-2.4-2-2.9,3.5c0,0-1.2-1.2-4.4,4.8,0,0-1-1.7-2.2.4-1,1.8-7.4,8.1-12.2,11-3.3,1.3-6.1,2.9-8.2,3.7-3.4,1.3-9.5,8.2-8.8,14.5a70.72,70.72,0,0,0-5.5,6.2c-.9,1.1-3.3,4.1-3.3,4.1-6.6,2.5-6.1,5.4-6.1,5.4-2.5,1.9-1.9,3.1-1.9,3.1-4.2,3.6-4.6,5.3-3.7,6.3.6.6,1.8,0,2.6-.4a8.13,8.13,0,0,0-1.9,2.3c-1.4,2.3.8,2.4,1.4,2.1.2-.1,4.1-3.4,4.1-3.4s-2.7,2.6-3.3,4.3c-1.3,3.8,2.9,1.9,2.9,1.9.1,2.3,2.4.7,2.4.7,1.5.2,5.1-5.7,5.4-6.3a11.71,11.71,0,0,0-1.5,4.1c-.2,2,1.4,1.1,2.2.3a29.62,29.62,0,0,0,2-2.5s-.1.5.6.5c.9,0,4.2-2.1,4.2-3s1.6-6.3,1.6-6.3a1.73,1.73,0,0,1,1.5-.2c-.1.9,1.3.4,1.3.4.7.5,1.1.1,1.1.1.4.4,1.5-.4,2.4-.9a4.87,4.87,0,0,0,1.2.1c.5.7,2.3.6,2.3.6a8.77,8.77,0,0,0,2.3,0,2.35,2.35,0,0,0,.8.2,4.64,4.64,0,0,0,3.8,4.1,7.53,7.53,0,0,1,2,.9c-.8.8.5,1.3.5,1.3-.2-.5.8-.5,1.9-.7s2.3,1.1,2.9,1.5a9.66,9.66,0,0,0,2.9.5c.3,0,.4.2.4.3.8-2-1.6-2.3-1.6-2.3a10.21,10.21,0,0,1,4.7-.6c.8.1.8-.8.8-.8a.85.85,0,0,1,.9.3c.1-.8-.6-1.1-1.3-1a9,9,0,0,1-2.3-.3c-.5-1.8-3.7.7-5.2.8s-4.6-1.9-5.4-2.5c-.4-.3-.4-1.1-.2-1.9a2.44,2.44,0,0,0,.9-.5c2.4.5,3.2-1,3.2-1a5.62,5.62,0,0,0,4-1.6,4.21,4.21,0,0,0,3.6-1,.14.14,0,0,1,0,.2s.5,0,.3-.6a1.24,1.24,0,0,1,.2-.3,3.85,3.85,0,0,0,2.8-1.1c3.4,1.1,5.8-2,5.8-2,5,1.7,5.9-2.8,5.9-2.8,5.1.8,5.8-3.4,5.8-3.4,5.2,0,4.9-4,4.9-4,8.3-1.4,4.7-5.2,4.7-5.2,10.9-3,5.9-5,5.9-5,8-2.5,5.9-4.7,5.9-4.7A22.53,22.53,0,0,0,386.29,119Z"/><path d="M1169.83,164.3c0,.1,0,.1-.1.2A.31.31,0,0,1,1169.83,164.3Z"/><path d="M1219,119c-3.1,1.8-8.1,2.5-8.1,2.5a13.66,13.66,0,0,0,7.9-5.7,19.57,19.57,0,0,1-12.7,3.8c11.7-2.5,12-9.7,12-9.7-4,6-9.1,8.6-19.9,10.4a187.19,187.19,0,0,1-26.5,2.1c-.4-1.9-1.1-4.2-3.1-5.2,8.4-3.6,18.2-9.7,17.8-19.1-.2-5.2-1.4,1.7-4.9,6.5,0,0,1.6-7.4-.2-9s-2.2,3.5-2.2,3.5-2.4-2-2.9,3.5c0,0-1.2-1.2-4.4,4.8,0,0-1-1.7-2.2.4-1,1.8-7.4,8.1-12.2,11-3.3,1.3-6.1,2.9-8.2,3.7-3.4,1.3-9.5,8.2-8.8,14.5a70.72,70.72,0,0,0-5.5,6.2c-.9,1.1-3.3,4.1-3.3,4.1-6.6,2.5-6.1,5.4-6.1,5.4-2.5,1.9-1.9,3.1-1.9,3.1-4.2,3.6-4.6,5.3-3.7,6.3.6.6,1.8,0,2.6-.4a8.13,8.13,0,0,0-1.9,2.3c-1.4,2.3.8,2.4,1.4,2.1.2-.1,4.1-3.4,4.1-3.4s-2.7,2.6-3.3,4.3c-1.3,3.8,2.9,1.9,2.9,1.9.1,2.3,2.4.7,2.4.7,1.5.2,5.1-5.7,5.4-6.3a11.71,11.71,0,0,0-1.5,4.1c-.2,2,1.4,1.1,2.2.3a29.62,29.62,0,0,0,2-2.5s-.1.5.6.5c.9,0,4.2-2.1,4.2-3s1.6-6.3,1.6-6.3a1.73,1.73,0,0,1,1.5-.2c-.1.9,1.3.4,1.3.4.7.5,1.1.1,1.1.1.4.4,1.5-.4,2.4-.9a4.87,4.87,0,0,0,1.2.1c.5.7,2.3.6,2.3.6a8.77,8.77,0,0,0,2.3,0,2.35,2.35,0,0,0,.8.2,4.64,4.64,0,0,0,3.8,4.1,7.53,7.53,0,0,1,2,.9c-.8.8.5,1.3.5,1.3-.2-.5.8-.5,1.9-.7s2.3,1.1,2.9,1.5a9.66,9.66,0,0,0,2.9.5c.3,0,.4.2.4.3.8-2-1.6-2.3-1.6-2.3a10.21,10.21,0,0,1,4.7-.6c.8.1.8-.8.8-.8a.85.85,0,0,1,.9.3c.1-.8-.6-1.1-1.3-1a9,9,0,0,1-2.3-.3c-.5-1.8-3.7.7-5.2.8s-4.6-1.9-5.4-2.5c-.4-.3-.4-1.1-.2-1.9a2.44,2.44,0,0,0,.9-.5c2.4.5,3.2-1,3.2-1a5.62,5.62,0,0,0,4-1.6,4.21,4.21,0,0,0,3.6-1,.14.14,0,0,1,0,.2s.5,0,.3-.6a1.24,1.24,0,0,1,.2-.3,3.85,3.85,0,0,0,2.8-1.1c3.4,1.1,5.8-2,5.8-2,5,1.7,5.9-2.8,5.9-2.8,5.1.8,5.8-3.4,5.8-3.4,5.2,0,4.9-4,4.9-4,8.3-1.4,4.7-5.2,4.7-5.2,10.9-3,5.9-5,5.9-5,8-2.5,5.9-4.7,5.9-4.7A22.53,22.53,0,0,0,1219,119Z"/><path d="M643.19,168.1c0,.1,0,.1-.1.2C643.19,168.3,643.19,168.2,643.19,168.1Z"/><path d="M653.49,136a5.55,5.55,0,0,0-2.1-5.9c-3.2-2.5-6.1-1-10.1-.9a8.17,8.17,0,0,1-1.4-.1c.5-.9,1.1-2.4-.4-3.2-.8-.4-2.3-.4-4.5.1-.5-2.5-1.8-7.5-4.5-9.5-3.7-2.7-15.6-6.6-52.4,3.7-7.9,2.2,1.8,3,5.7,2.3,0,0-15.4,4.9-6.4,5.8,0,0-.3,2.9,4,2.6,0,0,.1,1.8,4.4,1.3,0,0,1,2.4,5.1,1.3,0,0,1.2,1.8,6.6,1,0,0,3.6,2.8,7.7,2a55.43,55.43,0,0,0,7-.9c-7.4,3.6-16,8.2-25.4,13.3-4.3,2.4-.5,2.7-.5,2.7s-4,3.7.4,3.1,17.1-6.1,21.9-8.4a.31.31,0,0,1,.2.1c-.1.2-.3.3-.4.5-.9,1.1-3.3,4.1-3.3,4.1-6.6,2.5-6.1,5.4-6.1,5.4-2.5,1.9-1.9,3.1-1.9,3.1-4.2,3.6-4.6,5.3-3.7,6.3.6.6,1.8,0,2.6-.4a8.13,8.13,0,0,0-1.9,2.3c-1.4,2.3.8,2.4,1.4,2.1.2-.1,4.1-3.4,4.1-3.4s-2.7,2.6-3.3,4.3c-1.3,3.8,2.9,1.9,2.9,1.9.1,2.3,2.4.7,2.4.7,1.5.2,5.1-5.7,5.4-6.3a11.71,11.71,0,0,0-1.5,4.1c-.2,2,1.4,1.1,2.2.3a29.62,29.62,0,0,0,2-2.5s-.1.5.6.5c.9,0,4.2-2.1,4.2-3s1.6-6.3,1.6-6.3a1.73,1.73,0,0,1,1.5-.2c-.1.9,1.3.4,1.3.4.7.5,1.1.1,1.1.1.8.7,3.4-2,3.5-1.1s2.4.9,2.4.9a12.65,12.65,0,0,0,3,0,4.49,4.49,0,0,0,3.8,4.3,7.53,7.53,0,0,1,2,.9c-.8.8.5,1.3.5,1.3-.2-.5.8-.5,1.9-.7s2.3,1.1,2.9,1.5a9.66,9.66,0,0,0,2.9.5c.3,0,.4.2.4.3.8-2-1.6-2.3-1.6-2.3a10.21,10.21,0,0,1,4.7-.6c.8.1.8-.8.8-.8a.85.85,0,0,1,.9.3c.1-.8-.6-1.1-1.3-1a9,9,0,0,1-2.3-.3c-.5-1.8-3.7.7-5.2.8s-4.6-1.9-5.4-2.5.1-3.4.6-4.2a5,5,0,0,0,.3-2.5c1-.8,3.4-.5,3.4-.5s.2.3-1.2.7a1.46,1.46,0,0,0-1.2,1.6c-.5,1,.7,1.6.7,1.6-.2-.4.1-1.3.1-1.3.3,0,.8-.5,1.2-1.1s2.7-1.3,2.7-1.3c1.4-.3,4.4.6,4.4.6.5.1.4.4.4.4s.7,0,.1-1.1-2.8-1.1-2.8-1.1a15,15,0,0,1,4.2-.6c.6.1.6-.8.6-.8.4-.2,1.1.3,1.1.3a1.84,1.84,0,0,0-2.6-.8c-.5.2-4.2.5-4.2.5a6.31,6.31,0,0,1,.7-1,4.93,4.93,0,0,0,.4-.9c0-.3.6-.3.6-.3a1.25,1.25,0,0,0-1.6,0c-.7.2-1.7,2.5-2.5,2.6a36.4,36.4,0,0,1-4.7,0c-.4-.2.4-3.3.5-3.8s4.5-4.4,6.1-5.4a36.42,36.42,0,0,0,5.9-4.5c.9-1.2,2.6-.8,3.4-.6s2.5,2.9,2.5,2.9C654.09,139.6,653.49,136,653.49,136Z"/><path d="M920.86,168.1c0,.1,0,.1-.1.2A.35.35,0,0,0,920.86,168.1Z"/><path d="M931.06,136a5.55,5.55,0,0,0-2.1-5.9c-3.2-2.5-6.1-1-10.1-.9a8.17,8.17,0,0,1-1.4-.1c.5-.9,1.1-2.4-.4-3.2-.8-.4-2.3-.4-4.5.1-.5-2.5-1.8-7.5-4.5-9.5-3.7-2.7-15.6-6.6-52.4,3.7-7.9,2.2,1.8,3,5.7,2.3,0,0-15.4,4.9-6.4,5.8,0,0-.3,2.9,4,2.6,0,0,.1,1.8,4.4,1.3,0,0,1,2.4,5.1,1.3,0,0,1.2,1.8,6.6,1,0,0,3.6,2.8,7.7,2a55.43,55.43,0,0,0,7-.9c-7.4,3.6-16,8.2-25.4,13.3-4.3,2.4-.5,2.7-.5,2.7s-4,3.7.4,3.1,17.1-6.1,21.9-8.4a.31.31,0,0,1,.2.1c-.1.2-.3.3-.4.5-.9,1.1-3.3,4.1-3.3,4.1-6.6,2.5-6.1,5.4-6.1,5.4-2.5,1.9-1.9,3.1-1.9,3.1-4.2,3.6-4.6,5.3-3.7,6.3.6.6,1.8,0,2.6-.4a8.13,8.13,0,0,0-1.9,2.3c-1.4,2.3.8,2.4,1.4,2.1.2-.1,4.1-3.4,4.1-3.4s-2.7,2.6-3.3,4.3c-1.3,3.8,2.9,1.9,2.9,1.9.1,2.3,2.4.7,2.4.7,1.5.2,5.1-5.7,5.4-6.3a11.71,11.71,0,0,0-1.5,4.1c-.2,2,1.4,1.1,2.2.3a29.62,29.62,0,0,0,2-2.5s-.1.5.6.5c.9,0,4.2-2.1,4.2-3s1.6-6.3,1.6-6.3a1.73,1.73,0,0,1,1.5-.2c-.1.9,1.3.4,1.3.4.7.5,1.1.1,1.1.1.8.7,3.4-2,3.5-1.1s2.4.9,2.4.9a12.65,12.65,0,0,0,3,0,4.49,4.49,0,0,0,3.8,4.3,7.53,7.53,0,0,1,2,.9c-.8.8.5,1.3.5,1.3-.2-.5.8-.5,1.9-.7s2.3,1.1,2.9,1.5a9.66,9.66,0,0,0,2.9.5c.3,0,.4.2.4.3.8-2-1.6-2.3-1.6-2.3a10.21,10.21,0,0,1,4.7-.6c.8.1.8-.8.8-.8a.85.85,0,0,1,.9.3c.1-.8-.6-1.1-1.3-1a9,9,0,0,1-2.3-.3c-.5-1.8-3.7.7-5.2.8s-4.6-1.9-5.4-2.5.1-3.4.6-4.2a5,5,0,0,0,.3-2.5c1-.8,3.4-.5,3.4-.5s.2.3-1.2.7a1.46,1.46,0,0,0-1.2,1.6c-.5,1,.7,1.6.7,1.6-.2-.4.1-1.3.1-1.3.3,0,.8-.5,1.2-1.1s2.7-1.3,2.7-1.3c1.4-.3,4.4.6,4.4.6.5.1.4.4.4.4s.7,0,.1-1.1-2.8-1.1-2.8-1.1a15,15,0,0,1,4.2-.6c.6.1.6-.8.6-.8.4-.2,1.1.3,1.1.3a1.84,1.84,0,0,0-2.6-.8c-.5.2-4.2.5-4.2.5a6.31,6.31,0,0,1,.7-1,4.93,4.93,0,0,0,.4-.9c0-.3.6-.3.6-.3a1.25,1.25,0,0,0-1.6,0c-.7.2-1.7,2.5-2.5,2.6a36.4,36.4,0,0,1-4.7,0c-.4-.2.4-3.3.5-3.8s4.5-4.4,6.1-5.4a36.42,36.42,0,0,0,5.9-4.5c.9-1.1,2.6-.8,3.4-.6s2.5,2.9,2.5,2.9C931.76,139.6,931.06,136,931.06,136Z"/><path d="M778.22,165.6c0,.1,0,.1-.1.2A.35.35,0,0,0,778.22,165.6Z"/><path d="M788.42,133.5a5.55,5.55,0,0,0-2.1-5.9c-3.2-2.5-6.1-1-10.1-.9a28.46,28.46,0,0,0-7.8.1,10.27,10.27,0,0,0-7-.3c-4.8,1.3-12.7,8.2-20,14.7-3.5,1.3-7.1,2.4-10.4,3.4-9.2,2.6-11.8,1.9-13.7,4-.7.8,1.8-.5,7-.1,2.6.2,5.4.5,8.2.7a54.13,54.13,0,0,1-5.5,4.3c-6.6,4-6.7,5.7.2,2a50,50,0,0,1,7.2-3.1,2.84,2.84,0,0,0-.5,1.7c-2.5,1.9-1.9,3.1-1.9,3.1-4.2,3.6-4.6,5.3-3.7,6.3.6.6,1.8,0,2.6-.4a8.13,8.13,0,0,0-1.9,2.3c-1.4,2.3.8,2.4,1.4,2.1.2-.1,4.1-3.4,4.1-3.4s-2.7,2.6-3.3,4.3c-1.3,3.8,2.9,1.9,2.9,1.9.1,2.3,2.4.7,2.4.7,1.5.2,5.1-5.7,5.4-6.3a11.71,11.71,0,0,0-1.5,4.1c-.2,2,1.4,1.1,2.2.3a29.62,29.62,0,0,0,2-2.5s-.1.5.6.5c.9,0,4.2-2.1,4.2-3s1.6-6.3,1.6-6.3a1.73,1.73,0,0,1,1.5-.2c-.1.9,1.3.4,1.3.4.7.5,1.1.1,1.1.1.8.7,3.4-2,3.5-1.1s2.4.9,2.4.9a12.65,12.65,0,0,0,3,0,4.49,4.49,0,0,0,3.8,4.3,7.53,7.53,0,0,1,2,.9c-.8.8.5,1.3.5,1.3-.2-.5.8-.5,1.9-.7s2.3,1.1,2.9,1.5a9.66,9.66,0,0,0,2.9.5c.3,0,.4.2.4.3.8-2-1.6-2.3-1.6-2.3a10.21,10.21,0,0,1,4.7-.6c.8.1.8-.8.8-.8a.85.85,0,0,1,.9.3c.1-.8-.6-1.1-1.3-1a9,9,0,0,1-2.3-.3c-.5-1.8-3.7.7-5.2.8s-4.6-1.9-5.4-2.5.1-3.4.6-4.2a5,5,0,0,0,.3-2.5c1-.8,3.4-.5,3.4-.5s.2.3-1.2.7a1.46,1.46,0,0,0-1.2,1.6c-.5,1,.7,1.6.7,1.6-.2-.4.1-1.3.1-1.3.3,0,.8-.5,1.2-1.1s2.7-1.3,2.7-1.3c1.4-.3,4.4.6,4.4.6.5.1.4.4.4.4s.7,0,.1-1.1-2.8-1.1-2.8-1.1a15,15,0,0,1,4.2-.6c.6.1.6-.8.6-.8.4-.2,1.1.3,1.1.3a1.84,1.84,0,0,0-2.6-.8c-.5.2-4.2.5-4.2.5a6.31,6.31,0,0,1,.7-1,4.93,4.93,0,0,0,.4-.9c0-.3.6-.3.6-.3s-.2-.2-.3-.2a8.2,8.2,0,0,0,3.5-4.1,8.52,8.52,0,0,0-.1-6.1,1.87,1.87,0,0,0,.6-.7c.9-1.2,2.6-.8,3.4-.6s2.5,2.9,2.5,2.9C789.12,137.1,788.42,133.5,788.42,133.5Zm-14,16.7a36.4,36.4,0,0,1-4.7,0l-.1-.1a27.46,27.46,0,0,0,6.3-1.8C775.42,149.2,774.82,150.1,774.42,150.2Z"/></svg>