<svg id="圖層_1" data-name="圖層 1" xmlns="http://www.w3.org/2000/svg" viewBox="0 0 113.54 114.48"><defs><style>.cls-1{opacity:0.5;}</style></defs><path class="cls-1" d="M80,84.9c0,.1,0,.1-.1.2A.35.35,0,0,0,80,84.9Z"/><path class="cls-1" d="M90.23,52.8a5.56,5.56,0,0,0-2.1-5.9c-3.2-2.5-6.1-1-10.1-.9a28.3,28.3,0,0,0-7.8.1,10.28,10.28,0,0,0-7-.3c-4.8,1.3-12.7,8.2-20,14.7-3.5,1.3-7.1,2.4-10.4,3.4-9.2,2.6-11.8,1.9-13.7,4-.7.8,1.8-.5,7-.1,2.6.2,5.4.5,8.2.7a54.22,54.22,0,0,1-5.5,4.3c-6.6,4-6.7,5.7.2,2a49.29,49.29,0,0,1,7.2-3.1,2.78,2.78,0,0,0-.5,1.7c-2.5,1.9-1.9,3.1-1.9,3.1-4.2,3.6-4.6,5.3-3.7,6.3.6.6,1.8,0,2.6-.4a8,8,0,0,0-1.9,2.3c-1.4,2.3.8,2.4,1.4,2.1.2-.1,4.1-3.4,4.1-3.4S33.63,86,33,87.7c-1.3,3.8,2.9,1.9,2.9,1.9.1,2.3,2.4.7,2.4.7,1.5.2,5.1-5.7,5.4-6.3a11.58,11.58,0,0,0-1.5,4.1c-.2,2,1.4,1.1,2.2.3a30,30,0,0,0,2-2.5s-.1.5.6.5c.9,0,4.2-2.1,4.2-3a63,63,0,0,1,1.6-6.3,1.73,1.73,0,0,1,1.5-.2c-.1.9,1.3.4,1.3.4.7.5,1.1.1,1.1.1.8.7,3.4-2,3.5-1.1s2.4.9,2.4.9a12.54,12.54,0,0,0,3,0,4.48,4.48,0,0,0,3.8,4.3,7.49,7.49,0,0,1,2,.9c-.8.8.5,1.3.5,1.3-.2-.5.8-.5,1.9-.7s2.3,1.1,2.9,1.5a9.81,9.81,0,0,0,2.9.5c.3,0,.4.2.4.3.8-2-1.6-2.3-1.6-2.3a10.18,10.18,0,0,1,4.7-.6c.8.1.8-.8.8-.8a.86.86,0,0,1,.9.3c.1-.8-.6-1.1-1.3-1a8.91,8.91,0,0,1-2.3-.3c-.5-1.8-3.7.7-5.2.8s-4.6-1.9-5.4-2.5.1-3.4.6-4.2a5.06,5.06,0,0,0,.3-2.5c1-.8,3.4-.5,3.4-.5s.2.3-1.2.7a1.45,1.45,0,0,0-1.2,1.6c-.5,1,.7,1.6.7,1.6-.2-.4.1-1.3.1-1.3.3,0,.8-.5,1.2-1.1s2.7-1.3,2.7-1.3c1.4-.3,4.4.6,4.4.6.5.1.4.4.4.4s.7,0,.1-1.1-2.8-1.1-2.8-1.1a14.91,14.91,0,0,1,4.2-.6c.6.1.6-.8.6-.8.4-.2,1.1.3,1.1.3a1.85,1.85,0,0,0-2.45-.88l-.15.08c-.5.2-4.2.5-4.2.5a5.79,5.79,0,0,1,.7-1,6,6,0,0,0,.4-.9c0-.3.6-.3.6-.3s-.2-.2-.3-.2a8.22,8.22,0,0,0,3.5-4.1,8.55,8.55,0,0,0-.1-6.1,1.93,1.93,0,0,0,.6-.7c.9-1.2,2.6-.8,3.4-.6s2.5,2.9,2.5,2.9C90.93,56.4,90.23,52.8,90.23,52.8Zm-14,16.7a36.85,36.85,0,0,1-4.7,0l-.1-.1a27.66,27.66,0,0,0,6.3-1.8C77.23,68.5,76.63,69.4,76.23,69.5Z"/></svg>